<?xml version="1.0" encoding="UTF-8"?>
<svg xmlns="http://www.w3.org/2000/svg" xmlns:xlink="http://www.w3.org/1999/xlink" width="3840" height="2160" viewBox="0 0 3840 2160">
<defs>
<g>
<g id="glyph-0-0">
<path d="M 2.207031 -6.570312 C 2.347656 -6.570312 2.464844 -6.523438 2.5625 -6.425781 C 2.65625 -6.328125 2.703125 -6.210938 2.703125 -6.074219 C 2.703125 -5.9375 2.65625 -5.820312 2.5625 -5.726562 C 2.464844 -5.628906 2.347656 -5.582031 2.210938 -5.582031 C 2.074219 -5.582031 1.957031 -5.628906 1.859375 -5.726562 C 1.761719 -5.824219 1.714844 -5.941406 1.714844 -6.074219 C 1.714844 -6.210938 1.761719 -6.328125 1.859375 -6.425781 C 1.957031 -6.523438 2.074219 -6.570312 2.207031 -6.570312 Z M 2.203125 -3.769531 C 2.339844 -3.777344 2.457031 -3.730469 2.554688 -3.636719 C 2.652344 -3.539062 2.699219 -3.421875 2.699219 -3.28125 C 2.699219 -3.148438 2.652344 -3.03125 2.558594 -2.929688 C 2.464844 -2.828125 2.351562 -2.777344 2.226562 -2.777344 C 2.082031 -2.777344 1.960938 -2.828125 1.859375 -2.925781 C 1.757812 -3.023438 1.710938 -3.140625 1.710938 -3.277344 C 1.710938 -3.40625 1.757812 -3.519531 1.851562 -3.617188 C 1.949219 -3.710938 2.066406 -3.761719 2.203125 -3.769531 Z M 2.195312 -0.980469 C 2.332031 -0.980469 2.449219 -0.933594 2.542969 -0.835938 C 2.636719 -0.742188 2.6875 -0.625 2.6875 -0.488281 C 2.6875 -0.355469 2.636719 -0.238281 2.542969 -0.140625 C 2.449219 -0.0429688 2.339844 0.00390625 2.210938 0.00390625 C 2.070312 0.00390625 1.953125 -0.046875 1.851562 -0.148438 C 1.75 -0.25 1.699219 -0.367188 1.699219 -0.503906 C 1.699219 -0.625 1.75 -0.738281 1.851562 -0.835938 C 1.953125 -0.933594 2.066406 -0.980469 2.195312 -0.980469 Z "/>
</g>
</g>
</defs>
<g fill="rgb(51.372549%, 75.686275%, 40.392157%)" fill-opacity="1">
<use xlink:href="#glyph-0-0" x="30" y="26.665039"/>
</g>
</svg>
