<?xml version="1.0" encoding="UTF-8"?>
<svg xmlns="http://www.w3.org/2000/svg" xmlns:xlink="http://www.w3.org/1999/xlink" width="1920" height="1080" viewBox="0 0 1920 1080">
<defs>
<g>
<g id="glyph-0-0">
<path d="M 5.207031 -2.996094 L 3.855469 -6.210938 L 2.523438 -2.996094 Z M 0.171875 0 L 0.171875 -0.210938 C 0.472656 -0.246094 0.695312 -0.359375 0.847656 -0.550781 C 0.996094 -0.746094 1.253906 -1.273438 1.617188 -2.128906 L 4.050781 -7.855469 L 4.277344 -7.855469 L 7.183594 -1.242188 C 7.378906 -0.800781 7.53125 -0.527344 7.648438 -0.425781 C 7.765625 -0.320312 7.957031 -0.25 8.230469 -0.210938 L 8.230469 0 L 5.265625 0 L 5.265625 -0.210938 C 5.605469 -0.242188 5.824219 -0.277344 5.925781 -0.320312 C 6.023438 -0.363281 6.074219 -0.472656 6.074219 -0.644531 C 6.074219 -0.699219 6.054688 -0.800781 6.015625 -0.945312 C 5.976562 -1.089844 5.925781 -1.242188 5.855469 -1.402344 L 5.371094 -2.523438 L 2.320312 -2.523438 C 2.015625 -1.761719 1.832031 -1.292969 1.773438 -1.125 C 1.714844 -0.957031 1.6875 -0.820312 1.6875 -0.722656 C 1.6875 -0.527344 1.765625 -0.390625 1.925781 -0.3125 C 2.023438 -0.265625 2.210938 -0.234375 2.484375 -0.210938 L 2.484375 0 Z "/>
</g>
<g id="glyph-0-1">
<path d="M 1.863281 -1.046875 C 1.960938 -0.789062 2.109375 -0.597656 2.304688 -0.46875 C 2.5 -0.34375 2.730469 -0.277344 2.996094 -0.277344 C 3.40625 -0.277344 3.757812 -0.484375 4.046875 -0.890625 C 4.335938 -1.300781 4.484375 -1.867188 4.484375 -2.597656 C 4.484375 -3.296875 4.332031 -3.820312 4.03125 -4.164062 C 3.730469 -4.511719 3.378906 -4.683594 2.980469 -4.683594 C 2.699219 -4.683594 2.441406 -4.597656 2.210938 -4.421875 C 1.980469 -4.25 1.863281 -4.082031 1.863281 -3.914062 Z M 0.0507812 2.351562 C 0.40625 2.328125 0.636719 2.253906 0.730469 2.125 C 0.828125 1.996094 0.878906 1.792969 0.878906 1.515625 L 0.878906 -3.953125 C 0.878906 -4.242188 0.84375 -4.425781 0.773438 -4.507812 C 0.703125 -4.589844 0.570312 -4.632812 0.375 -4.632812 C 0.332031 -4.632812 0.296875 -4.628906 0.257812 -4.625 C 0.222656 -4.621094 0.171875 -4.613281 0.101562 -4.601562 L 0.101562 -4.789062 L 0.644531 -4.96875 C 0.664062 -4.972656 1.042969 -5.101562 1.789062 -5.359375 C 1.808594 -5.359375 1.820312 -5.351562 1.832031 -5.335938 C 1.839844 -5.316406 1.847656 -5.296875 1.847656 -5.273438 L 1.847656 -4.507812 C 2.097656 -4.757812 2.316406 -4.941406 2.507812 -5.0625 C 2.847656 -5.277344 3.199219 -5.382812 3.558594 -5.382812 C 4.082031 -5.382812 4.535156 -5.160156 4.914062 -4.714844 C 5.292969 -4.269531 5.480469 -3.65625 5.480469 -2.882812 C 5.480469 -2.125 5.253906 -1.433594 4.800781 -0.816406 C 4.347656 -0.195312 3.773438 0.113281 3.085938 0.113281 C 2.875 0.113281 2.691406 0.0859375 2.535156 0.0351562 C 2.292969 -0.046875 2.066406 -0.191406 1.863281 -0.40625 L 1.863281 1.457031 C 1.863281 1.839844 1.925781 2.078125 2.050781 2.164062 C 2.175781 2.25 2.449219 2.3125 2.871094 2.339844 L 2.871094 2.539062 L 0.0507812 2.539062 Z "/>
</g>
<g id="glyph-0-2">
<path d="M 0.238281 -0.160156 C 0.59375 -0.195312 0.832031 -0.265625 0.957031 -0.375 C 1.082031 -0.480469 1.144531 -0.691406 1.144531 -1.007812 L 1.144531 -6.574219 C 1.144531 -6.824219 1.125 -6.996094 1.082031 -7.09375 C 1.007812 -7.253906 0.851562 -7.332031 0.621094 -7.332031 C 0.566406 -7.332031 0.511719 -7.324219 0.445312 -7.316406 C 0.382812 -7.304688 0.304688 -7.285156 0.210938 -7.261719 L 0.210938 -7.453125 C 0.722656 -7.589844 1.339844 -7.769531 2.0625 -8 C 2.089844 -8 2.105469 -7.988281 2.109375 -7.964844 C 2.117188 -7.941406 2.121094 -7.890625 2.121094 -7.816406 L 2.121094 -0.984375 C 2.121094 -0.65625 2.175781 -0.441406 2.289062 -0.34375 C 2.402344 -0.246094 2.640625 -0.1875 2.996094 -0.160156 L 2.996094 0 L 0.238281 0 Z "/>
</g>
<g id="glyph-0-3">
<path d="M 0.160156 -5.234375 L 2.5625 -5.234375 L 2.5625 -5.058594 C 2.375 -5.054688 2.234375 -5.039062 2.140625 -5.007812 C 1.96875 -4.957031 1.878906 -4.859375 1.878906 -4.71875 C 1.878906 -4.664062 1.890625 -4.609375 1.910156 -4.554688 C 1.929688 -4.5 1.960938 -4.417969 2.011719 -4.308594 L 3.34375 -1.351562 L 4.414062 -4.328125 C 4.425781 -4.359375 4.445312 -4.429688 4.46875 -4.535156 C 4.492188 -4.640625 4.507812 -4.714844 4.507812 -4.75 C 4.507812 -4.847656 4.472656 -4.921875 4.402344 -4.96875 C 4.335938 -5.011719 4.246094 -5.039062 4.140625 -5.046875 L 3.964844 -5.058594 L 3.964844 -5.234375 L 5.53125 -5.234375 L 5.53125 -5.058594 C 5.375 -5.039062 5.257812 -4.988281 5.179688 -4.898438 C 5.101562 -4.8125 5.035156 -4.691406 4.980469 -4.535156 L 3.183594 0.214844 C 2.871094 1.035156 2.574219 1.632812 2.289062 2 C 2.003906 2.367188 1.644531 2.550781 1.207031 2.550781 C 0.996094 2.550781 0.796875 2.5 0.609375 2.394531 C 0.421875 2.285156 0.332031 2.117188 0.332031 1.886719 C 0.332031 1.734375 0.386719 1.609375 0.5 1.511719 C 0.609375 1.414062 0.753906 1.367188 0.921875 1.367188 C 1.019531 1.367188 1.167969 1.402344 1.363281 1.476562 C 1.558594 1.546875 1.699219 1.582031 1.78125 1.582031 C 1.996094 1.582031 2.21875 1.335938 2.457031 0.84375 C 2.691406 0.351562 2.808594 0.0195312 2.808594 -0.148438 C 2.808594 -0.183594 2.804688 -0.222656 2.792969 -0.273438 C 2.78125 -0.324219 2.765625 -0.367188 2.75 -0.40625 L 0.929688 -4.347656 C 0.800781 -4.628906 0.6875 -4.8125 0.589844 -4.902344 C 0.492188 -4.992188 0.347656 -5.050781 0.160156 -5.074219 Z "/>
</g>
<g id="glyph-0-4">
<path d="M 0.957031 -7.355469 C 0.957031 -7.519531 1.015625 -7.660156 1.128906 -7.777344 C 1.242188 -7.894531 1.382812 -7.953125 1.550781 -7.953125 C 1.714844 -7.953125 1.851562 -7.894531 1.96875 -7.777344 C 2.085938 -7.664062 2.140625 -7.523438 2.140625 -7.355469 C 2.140625 -7.191406 2.085938 -7.050781 1.96875 -6.9375 C 1.851562 -6.820312 1.710938 -6.761719 1.550781 -6.761719 C 1.382812 -6.761719 1.242188 -6.820312 1.128906 -6.9375 C 1.015625 -7.050781 0.957031 -7.191406 0.957031 -7.355469 Z M 0.226562 -0.160156 C 0.632812 -0.199219 0.890625 -0.265625 0.996094 -0.367188 C 1.101562 -0.46875 1.15625 -0.742188 1.15625 -1.183594 L 1.15625 -3.902344 C 1.15625 -4.148438 1.140625 -4.320312 1.105469 -4.414062 C 1.046875 -4.570312 0.929688 -4.648438 0.746094 -4.648438 C 0.703125 -4.648438 0.664062 -4.644531 0.625 -4.636719 C 0.585938 -4.628906 0.46875 -4.597656 0.277344 -4.546875 L 0.277344 -4.722656 L 0.523438 -4.800781 C 1.1875 -5.019531 1.652344 -5.183594 1.914062 -5.292969 C 2.019531 -5.339844 2.089844 -5.359375 2.121094 -5.359375 C 2.128906 -5.332031 2.128906 -5.304688 2.128906 -5.273438 L 2.128906 -1.183594 C 2.128906 -0.75 2.183594 -0.480469 2.289062 -0.371094 C 2.390625 -0.261719 2.628906 -0.191406 2.996094 -0.160156 L 2.996094 0 L 0.226562 0 Z "/>
</g>
<g id="glyph-0-5">
<path d="M 0.210938 -0.160156 C 0.480469 -0.195312 0.667969 -0.261719 0.777344 -0.363281 C 0.886719 -0.464844 0.941406 -0.6875 0.941406 -1.035156 L 0.941406 -3.925781 C 0.941406 -4.167969 0.917969 -4.339844 0.871094 -4.4375 C 0.800781 -4.582031 0.652344 -4.652344 0.425781 -4.652344 C 0.394531 -4.652344 0.359375 -4.652344 0.320312 -4.648438 C 0.285156 -4.644531 0.242188 -4.640625 0.1875 -4.632812 L 0.1875 -4.832031 C 0.34375 -4.875 0.710938 -4.996094 1.292969 -5.183594 L 1.828125 -5.359375 C 1.855469 -5.359375 1.871094 -5.351562 1.878906 -5.332031 C 1.882812 -5.3125 1.886719 -5.285156 1.886719 -5.253906 L 1.886719 -4.414062 C 2.234375 -4.742188 2.507812 -4.964844 2.707031 -5.085938 C 3.003906 -5.273438 3.308594 -5.367188 3.628906 -5.367188 C 3.886719 -5.367188 4.121094 -5.292969 4.335938 -5.144531 C 4.746094 -4.855469 4.949219 -4.339844 4.949219 -3.601562 L 4.949219 -0.941406 C 4.949219 -0.667969 5.003906 -0.46875 5.117188 -0.347656 C 5.226562 -0.226562 5.410156 -0.164062 5.667969 -0.160156 L 5.667969 0 L 3.234375 0 L 3.234375 -0.160156 C 3.511719 -0.199219 3.707031 -0.273438 3.816406 -0.390625 C 3.925781 -0.507812 3.980469 -0.757812 3.980469 -1.144531 L 3.980469 -3.578125 C 3.980469 -3.90625 3.921875 -4.175781 3.800781 -4.390625 C 3.679688 -4.605469 3.453125 -4.710938 3.128906 -4.710938 C 2.902344 -4.710938 2.675781 -4.636719 2.445312 -4.484375 C 2.316406 -4.394531 2.148438 -4.25 1.941406 -4.050781 L 1.941406 -0.859375 C 1.941406 -0.585938 2.003906 -0.402344 2.125 -0.308594 C 2.246094 -0.21875 2.4375 -0.167969 2.699219 -0.160156 L 2.699219 0 L 0.210938 0 Z "/>
</g>
<g id="glyph-0-6">
<path d="M 1.144531 1.054688 C 1.144531 1.375 1.324219 1.59375 1.683594 1.714844 C 2.042969 1.835938 2.453125 1.898438 2.917969 1.898438 C 3.546875 1.898438 4.058594 1.789062 4.453125 1.570312 C 4.847656 1.351562 5.046875 1.082031 5.046875 0.761719 C 5.046875 0.507812 4.886719 0.339844 4.570312 0.257812 C 4.371094 0.207031 3.996094 0.179688 3.445312 0.171875 C 3.304688 0.167969 3.15625 0.164062 3.003906 0.15625 C 2.847656 0.152344 2.703125 0.144531 2.574219 0.136719 C 2.492188 0.132812 2.355469 0.117188 2.171875 0.0898438 C 1.984375 0.0625 1.847656 0.0429688 1.753906 0.0234375 C 1.707031 0.0234375 1.597656 0.140625 1.417969 0.382812 C 1.234375 0.625 1.144531 0.847656 1.144531 1.054688 Z M 1.886719 -1.914062 C 1.539062 -2.027344 1.269531 -2.230469 1.078125 -2.523438 C 0.886719 -2.816406 0.792969 -3.144531 0.792969 -3.507812 C 0.792969 -3.953125 0.96875 -4.375 1.320312 -4.773438 C 1.675781 -5.171875 2.175781 -5.371094 2.820312 -5.371094 C 3.097656 -5.371094 3.402344 -5.304688 3.738281 -5.175781 C 4.070312 -5.042969 4.390625 -4.980469 4.699219 -4.980469 C 4.78125 -4.980469 4.898438 -4.980469 5.0625 -4.988281 C 5.222656 -4.992188 5.339844 -4.996094 5.410156 -4.996094 L 5.480469 -4.996094 L 5.480469 -4.535156 L 4.496094 -4.535156 C 4.5625 -4.375 4.617188 -4.238281 4.652344 -4.117188 C 4.71875 -3.898438 4.75 -3.691406 4.75 -3.492188 C 4.75 -3.058594 4.570312 -2.660156 4.210938 -2.296875 C 3.851562 -1.933594 3.371094 -1.753906 2.761719 -1.753906 C 2.667969 -1.753906 2.496094 -1.773438 2.25 -1.804688 C 2.140625 -1.804688 1.996094 -1.710938 1.8125 -1.527344 C 1.632812 -1.339844 1.542969 -1.1875 1.542969 -1.070312 C 1.542969 -0.949219 1.675781 -0.859375 1.941406 -0.804688 C 2.117188 -0.765625 2.3125 -0.746094 2.523438 -0.746094 C 3.5 -0.746094 4.164062 -0.691406 4.511719 -0.582031 C 5.085938 -0.402344 5.371094 -0.0195312 5.371094 0.570312 C 5.371094 1.171875 5.035156 1.648438 4.367188 2.003906 C 3.695312 2.363281 3.019531 2.539062 2.335938 2.539062 C 1.714844 2.539062 1.21875 2.414062 0.855469 2.160156 C 0.492188 1.910156 0.308594 1.644531 0.308594 1.367188 C 0.308594 1.230469 0.355469 1.097656 0.453125 0.964844 C 0.550781 0.835938 0.742188 0.640625 1.027344 0.382812 L 1.402344 0.046875 L 1.46875 -0.0234375 C 1.292969 -0.0898438 1.164062 -0.15625 1.078125 -0.222656 C 0.925781 -0.339844 0.847656 -0.476562 0.847656 -0.625 C 0.847656 -0.765625 0.914062 -0.921875 1.046875 -1.089844 C 1.175781 -1.257812 1.457031 -1.535156 1.886719 -1.914062 Z M 2.96875 -2.027344 C 3.175781 -2.027344 3.351562 -2.085938 3.492188 -2.199219 C 3.71875 -2.382812 3.832031 -2.699219 3.832031 -3.148438 C 3.832031 -3.511719 3.742188 -3.917969 3.558594 -4.371094 C 3.375 -4.820312 3.066406 -5.046875 2.636719 -5.046875 C 2.265625 -5.046875 2.007812 -4.871094 1.867188 -4.515625 C 1.796875 -4.332031 1.761719 -4.101562 1.761719 -3.828125 C 1.761719 -3.363281 1.871094 -2.949219 2.097656 -2.582031 C 2.320312 -2.210938 2.609375 -2.027344 2.96875 -2.027344 Z "/>
</g>
<g id="glyph-0-7">
<rect x="0" y="0" width="0" height="0" mask="url(#mask-0)"/>
</g>
<g id="glyph-0-8">
<path d="M 2.96875 -5.253906 L 2.96875 -4.84375 L 1.804688 -4.84375 L 1.792969 -1.5625 C 1.792969 -1.273438 1.820312 -1.054688 1.867188 -0.90625 C 1.960938 -0.644531 2.136719 -0.511719 2.402344 -0.511719 C 2.539062 -0.511719 2.660156 -0.546875 2.761719 -0.609375 C 2.859375 -0.675781 2.976562 -0.777344 3.105469 -0.917969 L 3.253906 -0.792969 L 3.128906 -0.621094 C 2.929688 -0.355469 2.722656 -0.167969 2.5 -0.0585938 C 2.28125 0.0507812 2.066406 0.109375 1.863281 0.109375 C 1.414062 0.109375 1.109375 -0.0898438 0.953125 -0.488281 C 0.863281 -0.707031 0.820312 -1.007812 0.820312 -1.390625 L 0.820312 -4.84375 L 0.199219 -4.84375 C 0.179688 -4.855469 0.167969 -4.863281 0.15625 -4.875 C 0.148438 -4.886719 0.140625 -4.902344 0.140625 -4.921875 C 0.140625 -4.960938 0.152344 -4.988281 0.167969 -5.011719 C 0.183594 -5.03125 0.238281 -5.078125 0.332031 -5.15625 C 0.59375 -5.371094 0.78125 -5.546875 0.898438 -5.683594 C 1.011719 -5.816406 1.285156 -6.171875 1.714844 -6.75 C 1.765625 -6.75 1.792969 -6.746094 1.804688 -6.738281 C 1.8125 -6.730469 1.816406 -6.703125 1.816406 -6.652344 L 1.816406 -5.253906 Z "/>
</g>
<g id="glyph-0-9">
<path d="M 0.296875 -2.644531 C 0.296875 -3.398438 0.535156 -4.039062 1.015625 -4.558594 C 1.496094 -5.082031 2.117188 -5.34375 2.871094 -5.34375 C 3.625 -5.34375 4.246094 -5.097656 4.738281 -4.601562 C 5.234375 -4.109375 5.480469 -3.453125 5.480469 -2.632812 C 5.480469 -1.875 5.242188 -1.21875 4.761719 -0.660156 C 4.285156 -0.101562 3.664062 0.175781 2.90625 0.175781 C 2.175781 0.175781 1.558594 -0.0898438 1.054688 -0.625 C 0.550781 -1.160156 0.296875 -1.835938 0.296875 -2.644531 Z M 2.710938 -5 C 2.410156 -5 2.152344 -4.902344 1.929688 -4.707031 C 1.550781 -4.359375 1.363281 -3.761719 1.363281 -2.917969 C 1.363281 -2.242188 1.515625 -1.609375 1.820312 -1.027344 C 2.125 -0.441406 2.550781 -0.148438 3.09375 -0.148438 C 3.519531 -0.148438 3.847656 -0.34375 4.074219 -0.734375 C 4.304688 -1.125 4.421875 -1.640625 4.421875 -2.273438 C 4.421875 -2.929688 4.273438 -3.550781 3.980469 -4.128906 C 3.6875 -4.710938 3.265625 -5 2.710938 -5 Z "/>
</g>
<g id="glyph-0-10">
<path d="M 5.046875 -5.601562 C 5.046875 -6.316406 4.738281 -6.804688 4.125 -7.070312 C 3.792969 -7.214844 3.375 -7.285156 2.871094 -7.285156 C 2.632812 -7.285156 2.484375 -7.261719 2.429688 -7.214844 C 2.375 -7.167969 2.347656 -7.0625 2.347656 -6.898438 L 2.347656 -3.855469 C 2.554688 -3.835938 2.691406 -3.828125 2.757812 -3.824219 C 2.820312 -3.820312 2.882812 -3.816406 2.945312 -3.816406 C 3.480469 -3.816406 3.902344 -3.894531 4.210938 -4.042969 C 4.769531 -4.320312 5.046875 -4.839844 5.046875 -5.601562 Z M 0.1875 -0.210938 C 0.632812 -0.253906 0.910156 -0.339844 1.019531 -0.476562 C 1.128906 -0.609375 1.183594 -0.917969 1.183594 -1.402344 L 1.183594 -6.453125 C 1.183594 -6.859375 1.125 -7.128906 1 -7.257812 C 0.875 -7.386719 0.605469 -7.46875 0.1875 -7.503906 L 0.1875 -7.71875 L 3.265625 -7.71875 C 4.253906 -7.71875 5.007812 -7.527344 5.53125 -7.144531 C 6.054688 -6.761719 6.316406 -6.253906 6.316406 -5.628906 C 6.316406 -4.835938 6.027344 -4.257812 5.445312 -3.902344 C 4.863281 -3.546875 4.136719 -3.367188 3.265625 -3.367188 C 3.140625 -3.367188 2.976562 -3.371094 2.78125 -3.375 C 2.585938 -3.382812 2.441406 -3.382812 2.347656 -3.382812 L 2.347656 -1.265625 C 2.347656 -0.824219 2.414062 -0.546875 2.550781 -0.433594 C 2.683594 -0.320312 2.984375 -0.246094 3.453125 -0.210938 L 3.453125 0 L 0.1875 0 Z "/>
</g>
<g id="glyph-0-11">
<path d="M 5.421875 -5.117188 C 5.195312 -5.089844 5.027344 -5.050781 4.917969 -5 C 4.808594 -4.953125 4.75 -4.855469 4.75 -4.707031 C 4.75 -4.625 4.761719 -4.542969 4.789062 -4.457031 C 4.8125 -4.371094 4.847656 -4.273438 4.886719 -4.160156 L 5.925781 -1.453125 L 6.9375 -3.925781 C 6.984375 -4.03125 7.035156 -4.171875 7.085938 -4.34375 C 7.140625 -4.515625 7.167969 -4.648438 7.167969 -4.734375 C 7.167969 -4.875 7.121094 -4.96875 7.035156 -5.019531 C 6.949219 -5.070312 6.820312 -5.105469 6.652344 -5.128906 L 6.652344 -5.292969 L 8.101562 -5.292969 L 8.101562 -5.128906 C 8.007812 -5.109375 7.929688 -5.0625 7.867188 -4.992188 C 7.804688 -4.917969 7.722656 -4.746094 7.609375 -4.476562 L 5.789062 0.015625 C 5.773438 0.0507812 5.757812 0.0742188 5.746094 0.0898438 C 5.734375 0.105469 5.71875 0.113281 5.695312 0.113281 C 5.652344 0.0898438 5.625 0.0703125 5.617188 0.0585938 L 4.328125 -3.128906 L 2.832031 0.046875 C 2.824219 0.0664062 2.8125 0.0820312 2.800781 0.09375 C 2.785156 0.105469 2.769531 0.113281 2.75 0.113281 C 2.707031 0.0898438 2.679688 0.0703125 2.671875 0.0585938 L 0.96875 -4.140625 C 0.78125 -4.601562 0.660156 -4.871094 0.597656 -4.953125 C 0.539062 -5.035156 0.417969 -5.089844 0.238281 -5.117188 L 0.238281 -5.292969 L 2.347656 -5.292969 L 2.347656 -5.117188 C 2.171875 -5.101562 2.039062 -5.070312 1.945312 -5.023438 C 1.851562 -4.976562 1.804688 -4.871094 1.804688 -4.71875 C 1.804688 -4.605469 1.882812 -4.335938 2.039062 -3.90625 C 2.128906 -3.660156 2.246094 -3.359375 2.386719 -3.007812 L 3.035156 -1.390625 L 4.0625 -3.589844 L 4.074219 -3.65625 C 4.074219 -3.734375 4.03125 -3.875 3.949219 -4.082031 C 3.867188 -4.289062 3.789062 -4.472656 3.714844 -4.636719 C 3.636719 -4.808594 3.550781 -4.925781 3.457031 -4.992188 C 3.359375 -5.058594 3.222656 -5.101562 3.046875 -5.117188 L 3.046875 -5.292969 L 5.421875 -5.292969 Z "/>
</g>
<g id="glyph-0-12">
<path d="M 2.671875 -5.34375 C 3.207031 -5.34375 3.675781 -5.160156 4.078125 -4.789062 C 4.480469 -4.417969 4.683594 -3.894531 4.683594 -3.214844 L 1.066406 -3.214844 C 1.105469 -2.332031 1.300781 -1.691406 1.664062 -1.289062 C 2.023438 -0.886719 2.453125 -0.683594 2.945312 -0.683594 C 3.34375 -0.683594 3.679688 -0.789062 3.953125 -0.996094 C 4.226562 -1.207031 4.480469 -1.503906 4.710938 -1.886719 L 4.910156 -1.816406 C 4.753906 -1.335938 4.464844 -0.890625 4.035156 -0.480469 C 3.609375 -0.0703125 3.085938 0.136719 2.464844 0.136719 C 1.753906 0.136719 1.199219 -0.132812 0.8125 -0.671875 C 0.421875 -1.210938 0.226562 -1.832031 0.226562 -2.535156 C 0.226562 -3.296875 0.453125 -3.957031 0.90625 -4.511719 C 1.359375 -5.066406 1.945312 -5.34375 2.671875 -5.34375 Z M 2.339844 -4.925781 C 1.90625 -4.925781 1.578125 -4.734375 1.351562 -4.351562 C 1.230469 -4.148438 1.140625 -3.890625 1.089844 -3.578125 L 3.492188 -3.578125 C 3.449219 -3.957031 3.378906 -4.242188 3.277344 -4.425781 C 3.089844 -4.761719 2.777344 -4.925781 2.339844 -4.925781 Z "/>
</g>
<g id="glyph-0-13">
<path d="M 0.0507812 -0.1875 C 0.402344 -0.21875 0.632812 -0.28125 0.746094 -0.375 C 0.859375 -0.46875 0.917969 -0.664062 0.917969 -0.96875 L 0.917969 -3.539062 C 0.917969 -3.914062 0.882812 -4.183594 0.8125 -4.34375 C 0.742188 -4.503906 0.613281 -4.585938 0.425781 -4.585938 C 0.390625 -4.585938 0.339844 -4.582031 0.277344 -4.570312 C 0.214844 -4.5625 0.148438 -4.550781 0.078125 -4.535156 L 0.078125 -4.722656 C 0.296875 -4.796875 0.519531 -4.875 0.746094 -4.957031 C 0.972656 -5.035156 1.132812 -5.09375 1.21875 -5.128906 C 1.410156 -5.199219 1.605469 -5.28125 1.804688 -5.371094 C 1.832031 -5.371094 1.847656 -5.363281 1.855469 -5.34375 C 1.859375 -5.324219 1.863281 -5.285156 1.863281 -5.222656 L 1.863281 -4.289062 C 2.105469 -4.628906 2.339844 -4.890625 2.566406 -5.082031 C 2.792969 -5.273438 3.027344 -5.367188 3.269531 -5.367188 C 3.464844 -5.367188 3.621094 -5.308594 3.742188 -5.191406 C 3.863281 -5.078125 3.925781 -4.929688 3.925781 -4.757812 C 3.925781 -4.601562 3.878906 -4.46875 3.785156 -4.363281 C 3.691406 -4.257812 3.574219 -4.203125 3.433594 -4.203125 C 3.289062 -4.203125 3.144531 -4.269531 3 -4.402344 C 2.851562 -4.535156 2.738281 -4.601562 2.65625 -4.601562 C 2.523438 -4.601562 2.359375 -4.496094 2.164062 -4.28125 C 1.972656 -4.066406 1.875 -3.84375 1.875 -3.617188 L 1.875 -1.046875 C 1.875 -0.722656 1.949219 -0.496094 2.101562 -0.367188 C 2.253906 -0.238281 2.507812 -0.179688 2.859375 -0.1875 L 2.859375 0 L 0.0507812 0 Z "/>
</g>
<g id="glyph-0-14">
<path d="M 0.132812 -0.210938 C 0.5625 -0.257812 0.839844 -0.332031 0.964844 -0.441406 C 1.09375 -0.550781 1.15625 -0.824219 1.15625 -1.265625 L 1.15625 -6.453125 C 1.15625 -6.867188 1.09375 -7.140625 0.96875 -7.265625 C 0.84375 -7.394531 0.5625 -7.472656 0.132812 -7.503906 L 0.132812 -7.71875 L 3.429688 -7.71875 L 3.429688 -7.503906 C 3 -7.480469 2.710938 -7.410156 2.566406 -7.292969 C 2.421875 -7.175781 2.347656 -6.921875 2.347656 -6.535156 L 2.347656 -0.929688 C 2.347656 -0.800781 2.367188 -0.699219 2.414062 -0.625 C 2.457031 -0.550781 2.550781 -0.503906 2.699219 -0.484375 C 2.789062 -0.472656 2.878906 -0.464844 2.976562 -0.460938 C 3.074219 -0.457031 3.253906 -0.457031 3.519531 -0.457031 C 4.558594 -0.457031 5.257812 -0.542969 5.621094 -0.710938 C 5.988281 -0.882812 6.339844 -1.320312 6.683594 -2.023438 L 6.980469 -2.023438 L 6.410156 0 L 0.132812 0 Z "/>
</g>
<g id="glyph-0-15">
<path d="M 0.753906 -2.347656 C 0.949219 -1.824219 1.179688 -1.40625 1.445312 -1.09375 C 1.910156 -0.550781 2.484375 -0.277344 3.171875 -0.277344 C 3.542969 -0.277344 3.867188 -0.398438 4.140625 -0.632812 C 4.410156 -0.867188 4.546875 -1.195312 4.546875 -1.617188 C 4.546875 -1.996094 4.410156 -2.328125 4.136719 -2.609375 C 3.957031 -2.789062 3.582031 -3.054688 3.007812 -3.414062 L 2.011719 -4.035156 C 1.710938 -4.222656 1.472656 -4.414062 1.292969 -4.609375 C 0.960938 -4.976562 0.796875 -5.382812 0.796875 -5.828125 C 0.796875 -6.417969 0.992188 -6.90625 1.382812 -7.296875 C 1.773438 -7.6875 2.292969 -7.882812 2.941406 -7.882812 C 3.207031 -7.882812 3.523438 -7.820312 3.898438 -7.6875 C 4.273438 -7.558594 4.488281 -7.492188 4.539062 -7.492188 C 4.683594 -7.492188 4.785156 -7.527344 4.839844 -7.59375 C 4.894531 -7.664062 4.9375 -7.757812 4.96875 -7.882812 L 5.207031 -7.882812 L 5.464844 -5.402344 L 5.183594 -5.402344 C 4.992188 -6.148438 4.6875 -6.671875 4.269531 -6.96875 C 3.851562 -7.265625 3.433594 -7.410156 3.023438 -7.410156 C 2.707031 -7.410156 2.429688 -7.316406 2.191406 -7.128906 C 1.953125 -6.941406 1.835938 -6.679688 1.835938 -6.347656 C 1.835938 -6.046875 1.925781 -5.789062 2.109375 -5.578125 C 2.289062 -5.359375 2.574219 -5.132812 2.957031 -4.898438 L 3.980469 -4.265625 C 4.625 -3.871094 5.074219 -3.507812 5.335938 -3.179688 C 5.59375 -2.84375 5.726562 -2.449219 5.726562 -1.992188 C 5.726562 -1.382812 5.496094 -0.871094 5.03125 -0.460938 C 4.570312 -0.0507812 3.980469 0.152344 3.265625 0.152344 C 2.902344 0.152344 2.527344 0.0859375 2.132812 -0.0507812 C 1.738281 -0.1875 1.515625 -0.257812 1.457031 -0.257812 C 1.320312 -0.257812 1.230469 -0.214844 1.183594 -0.132812 C 1.136719 -0.046875 1.101562 0.0429688 1.089844 0.136719 L 0.832031 0.136719 L 0.484375 -2.347656 Z "/>
</g>
<g id="glyph-0-16">
<path d="M 4.316406 -7.855469 C 4.738281 -7.855469 5.171875 -7.792969 5.617188 -7.667969 C 6.0625 -7.542969 6.308594 -7.480469 6.363281 -7.480469 C 6.472656 -7.480469 6.578125 -7.511719 6.675781 -7.570312 C 6.773438 -7.632812 6.84375 -7.726562 6.882812 -7.855469 L 7.125 -7.855469 L 7.234375 -5.234375 L 6.96875 -5.234375 C 6.8125 -5.753906 6.609375 -6.175781 6.359375 -6.496094 C 5.878906 -7.09375 5.234375 -7.394531 4.425781 -7.394531 C 3.609375 -7.394531 2.941406 -7.070312 2.425781 -6.425781 C 1.90625 -5.78125 1.644531 -4.890625 1.644531 -3.761719 C 1.644531 -2.71875 1.917969 -1.886719 2.464844 -1.265625 C 3.007812 -0.644531 3.699219 -0.335938 4.535156 -0.335938 C 5.136719 -0.335938 5.695312 -0.480469 6.203125 -0.769531 C 6.496094 -0.933594 6.816406 -1.179688 7.167969 -1.507812 L 7.382812 -1.292969 C 7.125 -0.964844 6.804688 -0.679688 6.421875 -0.433594 C 5.765625 -0.015625 5.058594 0.195312 4.296875 0.195312 C 3.042969 0.195312 2.046875 -0.207031 1.308594 -1.007812 C 0.628906 -1.75 0.289062 -2.671875 0.289062 -3.78125 C 0.289062 -4.917969 0.648438 -5.871094 1.367188 -6.640625 C 2.121094 -7.449219 3.105469 -7.855469 4.316406 -7.855469 Z "/>
</g>
<g id="glyph-0-17">
<path d="M 1.667969 -3.855469 C 1.667969 -2.628906 1.910156 -1.722656 2.394531 -1.136719 C 2.875 -0.550781 3.46875 -0.257812 4.171875 -0.257812 C 4.859375 -0.257812 5.445312 -0.542969 5.933594 -1.113281 C 6.421875 -1.683594 6.664062 -2.601562 6.664062 -3.855469 C 6.664062 -5.128906 6.417969 -6.046875 5.925781 -6.613281 C 5.429688 -7.179688 4.847656 -7.460938 4.171875 -7.460938 C 3.472656 -7.460938 2.878906 -7.167969 2.394531 -6.582031 C 1.910156 -5.996094 1.667969 -5.085938 1.667969 -3.855469 Z M 0.347656 -3.855469 C 0.347656 -5.101562 0.738281 -6.101562 1.519531 -6.851562 C 2.238281 -7.539062 3.121094 -7.882812 4.171875 -7.882812 C 5.222656 -7.882812 6.105469 -7.539062 6.824219 -6.847656 C 7.601562 -6.097656 7.992188 -5.101562 7.992188 -3.855469 C 7.992188 -2.589844 7.589844 -1.585938 6.785156 -0.835938 C 6.0625 -0.167969 5.191406 0.164062 4.171875 0.164062 C 3.078125 0.164062 2.167969 -0.207031 1.445312 -0.945312 C 0.714844 -1.703125 0.347656 -2.671875 0.347656 -3.855469 Z "/>
</g>
<g id="glyph-0-18">
<path d="M 0.132812 -0.210938 C 0.589844 -0.261719 0.875 -0.34375 0.988281 -0.464844 C 1.101562 -0.585938 1.15625 -0.894531 1.15625 -1.402344 L 1.15625 -6.453125 C 1.15625 -6.867188 1.09375 -7.140625 0.96875 -7.265625 C 0.84375 -7.394531 0.5625 -7.472656 0.132812 -7.503906 L 0.132812 -7.71875 L 6.347656 -7.71875 L 6.386719 -6.042969 L 6.0625 -6.042969 C 5.980469 -6.578125 5.832031 -6.917969 5.609375 -7.0625 C 5.390625 -7.203125 4.957031 -7.273438 4.308594 -7.273438 L 2.710938 -7.273438 C 2.554688 -7.273438 2.457031 -7.25 2.414062 -7.195312 C 2.371094 -7.140625 2.347656 -7.039062 2.347656 -6.882812 L 2.347656 -4.277344 L 4.035156 -4.277344 C 4.53125 -4.277344 4.847656 -4.351562 4.984375 -4.5 C 5.121094 -4.648438 5.230469 -4.949219 5.316406 -5.402344 L 5.589844 -5.402344 L 5.589844 -2.699219 L 5.316406 -2.699219 C 5.226562 -3.152344 5.117188 -3.453125 4.980469 -3.597656 C 4.84375 -3.742188 4.527344 -3.816406 4.035156 -3.816406 L 2.347656 -3.816406 L 2.347656 -1.265625 C 2.347656 -0.835938 2.414062 -0.5625 2.542969 -0.441406 C 2.675781 -0.320312 2.960938 -0.246094 3.402344 -0.210938 L 3.402344 0 L 0.132812 0 Z "/>
</g>
<g id="glyph-0-19">
<path d="M 1.902344 0.136719 C 1.71875 0.136719 1.566406 0.0742188 1.441406 -0.0546875 C 1.316406 -0.179688 1.253906 -0.335938 1.253906 -0.511719 C 1.253906 -0.691406 1.316406 -0.84375 1.445312 -0.96875 C 1.570312 -1.09375 1.722656 -1.15625 1.902344 -1.15625 C 2.082031 -1.15625 2.234375 -1.09375 2.359375 -0.96875 C 2.484375 -0.84375 2.546875 -0.691406 2.546875 -0.511719 C 2.546875 -0.332031 2.484375 -0.179688 2.359375 -0.0546875 C 2.238281 0.0742188 2.085938 0.136719 1.902344 0.136719 Z "/>
</g>
<g id="glyph-0-20">
<path d="M 1.28125 -7.355469 C 1.28125 -7.519531 1.339844 -7.660156 1.453125 -7.777344 C 1.566406 -7.894531 1.707031 -7.953125 1.875 -7.953125 C 2.039062 -7.953125 2.175781 -7.894531 2.292969 -7.777344 C 2.410156 -7.660156 2.464844 -7.519531 2.464844 -7.355469 C 2.464844 -7.191406 2.410156 -7.050781 2.292969 -6.9375 C 2.175781 -6.820312 2.039062 -6.761719 1.875 -6.761719 C 1.707031 -6.761719 1.566406 -6.820312 1.453125 -6.9375 C 1.339844 -7.050781 1.28125 -7.191406 1.28125 -7.355469 Z M -0.207031 1.445312 C -0.0078125 1.445312 0.183594 1.566406 0.375 1.804688 C 0.5625 2.042969 0.726562 2.164062 0.871094 2.164062 C 1.109375 2.164062 1.273438 2.027344 1.355469 1.75 C 1.40625 1.582031 1.433594 1.300781 1.4375 0.910156 C 1.441406 0.769531 1.441406 0.425781 1.441406 -0.125 L 1.441406 -3.875 C 1.441406 -4.132812 1.417969 -4.324219 1.367188 -4.445312 C 1.316406 -4.570312 1.203125 -4.632812 1.027344 -4.632812 C 0.972656 -4.632812 0.902344 -4.621094 0.816406 -4.601562 C 0.730469 -4.582031 0.644531 -4.5625 0.550781 -4.535156 L 0.550781 -4.710938 L 1.035156 -4.871094 C 1.152344 -4.910156 1.308594 -4.960938 1.496094 -5.027344 C 1.683594 -5.09375 1.863281 -5.160156 2.035156 -5.222656 L 2.375 -5.34375 C 2.390625 -5.320312 2.398438 -5.292969 2.398438 -5.265625 L 2.398438 0 C 2.398438 0.65625 2.316406 1.167969 2.148438 1.539062 C 1.84375 2.214844 1.261719 2.550781 0.40625 2.550781 C 0.125 2.550781 -0.125 2.496094 -0.34375 2.382812 C -0.5625 2.269531 -0.671875 2.117188 -0.671875 1.925781 C -0.671875 1.800781 -0.628906 1.6875 -0.542969 1.59375 C -0.453125 1.496094 -0.34375 1.445312 -0.207031 1.445312 Z "/>
</g>
<g id="glyph-0-21">
<path d="M 2.320312 -3.992188 C 3.160156 -4.023438 3.757812 -4.109375 4.117188 -4.253906 C 4.738281 -4.507812 5.046875 -4.988281 5.046875 -5.691406 C 5.046875 -6.367188 4.769531 -6.828125 4.214844 -7.074219 C 3.917969 -7.207031 3.527344 -7.273438 3.035156 -7.273438 C 2.707031 -7.273438 2.503906 -7.25 2.429688 -7.203125 C 2.355469 -7.15625 2.320312 -7.046875 2.320312 -6.871094 Z M 0.132812 -0.210938 C 0.578125 -0.253906 0.859375 -0.339844 0.96875 -0.472656 C 1.078125 -0.605469 1.132812 -0.914062 1.132812 -1.402344 L 1.132812 -6.453125 C 1.132812 -6.863281 1.070312 -7.132812 0.949219 -7.261719 C 0.824219 -7.386719 0.550781 -7.46875 0.132812 -7.503906 L 0.132812 -7.71875 L 3.359375 -7.71875 C 4.03125 -7.71875 4.59375 -7.632812 5.042969 -7.460938 C 5.894531 -7.140625 6.316406 -6.546875 6.316406 -5.679688 C 6.316406 -5.097656 6.128906 -4.652344 5.75 -4.339844 C 5.371094 -4.027344 4.859375 -3.824219 4.210938 -3.726562 L 6.613281 -0.769531 C 6.761719 -0.585938 6.910156 -0.453125 7.058594 -0.371094 C 7.207031 -0.285156 7.394531 -0.234375 7.628906 -0.210938 L 7.628906 0 L 5.746094 0 L 2.96875 -3.589844 L 2.320312 -3.558594 L 2.320312 -1.265625 C 2.320312 -0.832031 2.382812 -0.558594 2.515625 -0.441406 C 2.644531 -0.324219 2.933594 -0.25 3.371094 -0.210938 L 3.371094 0 L 0.132812 0 Z "/>
</g>
<g id="glyph-0-22">
<path d="M 4.316406 -7.855469 C 4.769531 -7.855469 5.214844 -7.792969 5.652344 -7.667969 C 6.089844 -7.542969 6.339844 -7.480469 6.402344 -7.480469 C 6.570312 -7.480469 6.6875 -7.511719 6.757812 -7.578125 C 6.828125 -7.640625 6.890625 -7.734375 6.9375 -7.855469 L 7.195312 -7.855469 L 7.285156 -5.402344 L 7.019531 -5.402344 C 6.78125 -5.96875 6.53125 -6.386719 6.277344 -6.664062 C 5.816406 -7.152344 5.21875 -7.394531 4.484375 -7.394531 C 3.734375 -7.394531 3.078125 -7.109375 2.507812 -6.542969 C 1.941406 -5.976562 1.65625 -5.039062 1.65625 -3.738281 C 1.65625 -2.664062 1.941406 -1.824219 2.507812 -1.21875 C 3.074219 -0.613281 3.769531 -0.3125 4.601562 -0.3125 C 4.742188 -0.3125 4.910156 -0.328125 5.097656 -0.351562 C 5.289062 -0.378906 5.46875 -0.421875 5.640625 -0.480469 C 5.917969 -0.570312 6.089844 -0.648438 6.160156 -0.714844 C 6.226562 -0.78125 6.261719 -0.878906 6.261719 -1.007812 L 6.261719 -2.871094 C 6.261719 -3.320312 6.195312 -3.597656 6.070312 -3.707031 C 5.941406 -3.816406 5.664062 -3.886719 5.234375 -3.914062 L 5.234375 -4.128906 L 8.210938 -4.128906 L 8.210938 -3.914062 C 7.921875 -3.894531 7.730469 -3.847656 7.632812 -3.769531 C 7.472656 -3.648438 7.394531 -3.398438 7.394531 -3.019531 L 7.394531 -0.722656 C 7.394531 -0.585938 7.058594 -0.40625 6.390625 -0.175781 C 5.71875 0.0507812 5.074219 0.164062 4.453125 0.164062 C 3.316406 0.164062 2.355469 -0.167969 1.574219 -0.832031 C 0.710938 -1.566406 0.277344 -2.546875 0.277344 -3.78125 C 0.277344 -4.867188 0.621094 -5.800781 1.308594 -6.574219 C 2.066406 -7.429688 3.070312 -7.855469 4.316406 -7.855469 Z "/>
</g>
</g>
<image id="source-12" x="0" y="0" width="0" height="0"/>
<mask id="mask-0">
<use xlink:href="#source-12"/>
</mask>
</defs>
<g fill="rgb(100%, 100%, 100%)" fill-opacity="1">
<use xlink:href="#glyph-0-0" x="30" y="28.75"/>
<use xlink:href="#glyph-0-1" x="38" y="28.75"/>
<use xlink:href="#glyph-0-1" x="44" y="28.75"/>
<use xlink:href="#glyph-0-2" x="50" y="28.75"/>
<use xlink:href="#glyph-0-3" x="53" y="28.75"/>
<use xlink:href="#glyph-0-4" x="59" y="28.75"/>
<use xlink:href="#glyph-0-5" x="62" y="28.75"/>
<use xlink:href="#glyph-0-6" x="68" y="28.75"/>
<use xlink:href="#glyph-0-7" x="74" y="28.75"/>
<use xlink:href="#glyph-0-8" x="77" y="28.75"/>
<use xlink:href="#glyph-0-9" x="80" y="28.75"/>
<use xlink:href="#glyph-0-7" x="86" y="28.75"/>
<use xlink:href="#glyph-0-10" x="89" y="28.75"/>
<use xlink:href="#glyph-0-9" x="95" y="28.75"/>
<use xlink:href="#glyph-0-11" x="101" y="28.75"/>
<use xlink:href="#glyph-0-12" x="109" y="28.75"/>
<use xlink:href="#glyph-0-13" x="114" y="28.75"/>
<use xlink:href="#glyph-0-14" x="118" y="28.75"/>
<use xlink:href="#glyph-0-0" x="125" y="28.75"/>
<use xlink:href="#glyph-0-15" x="133" y="28.75"/>
<use xlink:href="#glyph-0-16" x="139" y="28.75"/>
<use xlink:href="#glyph-0-17" x="147" y="28.75"/>
<use xlink:href="#glyph-0-10" x="155" y="28.75"/>
<use xlink:href="#glyph-0-18" x="161" y="28.75"/>
<use xlink:href="#glyph-0-19" x="167" y="28.75"/>
<use xlink:href="#glyph-0-20" x="169" y="28.75"/>
<use xlink:href="#glyph-0-2" x="172" y="28.75"/>
<use xlink:href="#glyph-0-7" x="175" y="28.75"/>
<use xlink:href="#glyph-0-21" x="178" y="28.75"/>
<use xlink:href="#glyph-0-0" x="186" y="28.75"/>
<use xlink:href="#glyph-0-22" x="194" y="28.75"/>
</g>
</svg>
