<?xml version="1.0" encoding="UTF-8"?>
<svg xmlns="http://www.w3.org/2000/svg" xmlns:xlink="http://www.w3.org/1999/xlink" width="3840" height="2160" viewBox="0 0 3840 2160">
<defs>
<g>
<g id="glyph-0-0">
<path d="M 0.800781 -0.300781 C 0.800781 -0.238281 0.816406 -0.195312 0.847656 -0.175781 C 0.878906 -0.15625 0.941406 -0.144531 1.039062 -0.144531 C 1.34375 -0.144531 1.59375 -0.203125 1.789062 -0.324219 C 2.089844 -0.507812 2.242188 -0.824219 2.242188 -1.273438 C 2.242188 -1.671875 2.117188 -1.972656 1.867188 -2.171875 C 1.65625 -2.34375 1.375 -2.429688 1.023438 -2.429688 C 0.9375 -2.429688 0.878906 -2.421875 0.847656 -2.402344 C 0.816406 -2.382812 0.800781 -2.339844 0.800781 -2.277344 Z M 0.0625 -0.0703125 C 0.203125 -0.0859375 0.296875 -0.109375 0.339844 -0.148438 C 0.382812 -0.183594 0.40625 -0.273438 0.40625 -0.421875 L 0.40625 -2.152344 C 0.40625 -2.292969 0.382812 -2.386719 0.34375 -2.425781 C 0.300781 -2.464844 0.207031 -2.492188 0.0625 -2.5 L 0.0625 -2.574219 L 1.109375 -2.574219 C 1.464844 -2.574219 1.761719 -2.515625 2.007812 -2.398438 C 2.449219 -2.191406 2.667969 -1.816406 2.667969 -1.277344 C 2.667969 -1.085938 2.628906 -0.898438 2.550781 -0.726562 C 2.472656 -0.550781 2.351562 -0.402344 2.191406 -0.28125 C 2.089844 -0.207031 1.984375 -0.148438 1.875 -0.109375 C 1.675781 -0.0351562 1.433594 0 1.144531 0 L 0.0625 0 Z "/>
</g>
<g id="glyph-0-1">
<path d="M 0.015625 -0.0625 C 0.132812 -0.0742188 0.210938 -0.09375 0.25 -0.125 C 0.289062 -0.15625 0.304688 -0.222656 0.304688 -0.324219 L 0.304688 -1.179688 C 0.304688 -1.304688 0.292969 -1.394531 0.269531 -1.449219 C 0.246094 -1.503906 0.203125 -1.527344 0.140625 -1.527344 C 0.128906 -1.527344 0.113281 -1.527344 0.09375 -1.523438 C 0.0703125 -1.519531 0.0507812 -1.515625 0.0273438 -1.511719 L 0.0273438 -1.574219 C 0.0976562 -1.601562 0.171875 -1.625 0.25 -1.652344 C 0.324219 -1.679688 0.378906 -1.699219 0.40625 -1.710938 C 0.46875 -1.734375 0.535156 -1.761719 0.601562 -1.789062 C 0.609375 -1.789062 0.617188 -1.789062 0.617188 -1.78125 C 0.621094 -1.773438 0.621094 -1.761719 0.621094 -1.742188 L 0.621094 -1.429688 C 0.703125 -1.542969 0.78125 -1.628906 0.855469 -1.695312 C 0.929688 -1.757812 1.007812 -1.789062 1.089844 -1.789062 C 1.15625 -1.789062 1.207031 -1.769531 1.246094 -1.730469 C 1.289062 -1.691406 1.308594 -1.644531 1.308594 -1.585938 C 1.308594 -1.535156 1.292969 -1.492188 1.261719 -1.453125 C 1.230469 -1.417969 1.191406 -1.402344 1.144531 -1.402344 C 1.097656 -1.402344 1.046875 -1.421875 1 -1.46875 C 0.953125 -1.511719 0.914062 -1.535156 0.886719 -1.535156 C 0.839844 -1.535156 0.785156 -1.5 0.722656 -1.425781 C 0.65625 -1.355469 0.625 -1.28125 0.625 -1.207031 L 0.625 -0.347656 C 0.625 -0.238281 0.648438 -0.164062 0.699219 -0.121094 C 0.75 -0.078125 0.835938 -0.0585938 0.953125 -0.0625 L 0.953125 0 L 0.015625 0 Z "/>
</g>
<g id="glyph-0-2">
<path d="M 0.0976562 -0.882812 C 0.0976562 -1.132812 0.179688 -1.347656 0.339844 -1.519531 C 0.5 -1.695312 0.707031 -1.78125 0.957031 -1.78125 C 1.207031 -1.78125 1.414062 -1.699219 1.582031 -1.535156 C 1.746094 -1.371094 1.828125 -1.152344 1.828125 -0.878906 C 1.828125 -0.625 1.746094 -0.40625 1.585938 -0.21875 C 1.425781 -0.0351562 1.222656 0.0585938 0.96875 0.0585938 C 0.726562 0.0585938 0.519531 -0.03125 0.351562 -0.207031 C 0.183594 -0.386719 0.0976562 -0.613281 0.0976562 -0.882812 Z M 0.902344 -1.667969 C 0.804688 -1.667969 0.71875 -1.632812 0.644531 -1.570312 C 0.515625 -1.453125 0.453125 -1.253906 0.453125 -0.972656 C 0.453125 -0.746094 0.503906 -0.535156 0.605469 -0.34375 C 0.707031 -0.148438 0.851562 -0.0507812 1.03125 -0.0507812 C 1.171875 -0.0507812 1.28125 -0.113281 1.359375 -0.246094 C 1.4375 -0.375 1.472656 -0.546875 1.472656 -0.757812 C 1.472656 -0.976562 1.425781 -1.183594 1.328125 -1.375 C 1.230469 -1.570312 1.089844 -1.667969 0.902344 -1.667969 Z "/>
</g>
<g id="glyph-0-3">
<path d="M 0.621094 -0.347656 C 0.652344 -0.261719 0.703125 -0.199219 0.769531 -0.15625 C 0.832031 -0.113281 0.910156 -0.09375 1 -0.09375 C 1.136719 -0.09375 1.253906 -0.160156 1.347656 -0.296875 C 1.445312 -0.433594 1.496094 -0.621094 1.496094 -0.867188 C 1.496094 -1.097656 1.445312 -1.273438 1.34375 -1.386719 C 1.242188 -1.503906 1.125 -1.5625 0.992188 -1.5625 C 0.898438 -1.5625 0.8125 -1.53125 0.738281 -1.476562 C 0.660156 -1.417969 0.621094 -1.359375 0.621094 -1.304688 Z M 0.015625 0.785156 C 0.136719 0.777344 0.210938 0.75 0.242188 0.707031 C 0.277344 0.664062 0.292969 0.597656 0.292969 0.503906 L 0.292969 -1.316406 C 0.292969 -1.414062 0.28125 -1.476562 0.257812 -1.503906 C 0.234375 -1.53125 0.191406 -1.542969 0.125 -1.542969 C 0.109375 -1.542969 0.0976562 -1.542969 0.0859375 -1.542969 C 0.0742188 -1.542969 0.0585938 -1.539062 0.0351562 -1.535156 L 0.0351562 -1.597656 L 0.214844 -1.65625 C 0.222656 -1.65625 0.347656 -1.699219 0.597656 -1.789062 C 0.601562 -1.789062 0.609375 -1.785156 0.609375 -1.777344 C 0.613281 -1.773438 0.617188 -1.765625 0.617188 -1.757812 L 0.617188 -1.503906 C 0.699219 -1.585938 0.773438 -1.648438 0.835938 -1.6875 C 0.949219 -1.757812 1.066406 -1.792969 1.1875 -1.792969 C 1.363281 -1.792969 1.511719 -1.71875 1.636719 -1.570312 C 1.761719 -1.421875 1.828125 -1.21875 1.828125 -0.960938 C 1.828125 -0.707031 1.75 -0.476562 1.601562 -0.273438 C 1.449219 -0.0664062 1.257812 0.0390625 1.03125 0.0390625 C 0.960938 0.0390625 0.898438 0.0273438 0.84375 0.0117188 C 0.761719 -0.015625 0.6875 -0.0625 0.621094 -0.136719 L 0.621094 0.484375 C 0.621094 0.613281 0.640625 0.691406 0.683594 0.722656 C 0.726562 0.75 0.816406 0.769531 0.957031 0.78125 L 0.957031 0.847656 L 0.015625 0.847656 Z "/>
</g>
<g id="glyph-0-4">
<path d="M 0.601562 -1.757812 L 0.601562 -0.542969 C 0.601562 -0.457031 0.613281 -0.386719 0.636719 -0.335938 C 0.683594 -0.238281 0.769531 -0.191406 0.894531 -0.191406 C 0.980469 -0.191406 1.066406 -0.21875 1.148438 -0.277344 C 1.195312 -0.308594 1.242188 -0.351562 1.292969 -0.410156 L 1.292969 -1.449219 C 1.292969 -1.546875 1.273438 -1.609375 1.234375 -1.640625 C 1.195312 -1.671875 1.121094 -1.691406 1.007812 -1.695312 L 1.007812 -1.757812 L 1.621094 -1.757812 L 1.621094 -0.421875 C 1.621094 -0.335938 1.636719 -0.277344 1.667969 -0.242188 C 1.699219 -0.210938 1.761719 -0.199219 1.863281 -0.203125 L 1.863281 -0.148438 C 1.792969 -0.128906 1.742188 -0.113281 1.710938 -0.105469 C 1.675781 -0.0976562 1.621094 -0.078125 1.542969 -0.0546875 C 1.511719 -0.0429688 1.4375 -0.015625 1.328125 0.0273438 C 1.320312 0.0273438 1.316406 0.0273438 1.316406 0.0195312 C 1.316406 0.015625 1.3125 0.0078125 1.3125 0 L 1.3125 -0.304688 C 1.226562 -0.203125 1.148438 -0.128906 1.078125 -0.078125 C 0.972656 -0.00390625 0.855469 0.0351562 0.738281 0.0351562 C 0.628906 0.0351562 0.523438 -0.00390625 0.425781 -0.0820312 C 0.328125 -0.160156 0.277344 -0.289062 0.277344 -0.472656 L 0.277344 -1.457031 C 0.277344 -1.558594 0.253906 -1.625 0.210938 -1.660156 C 0.183594 -1.679688 0.125 -1.695312 0.0351562 -1.707031 L 0.0351562 -1.757812 Z "/>
</g>
<g id="glyph-0-5">
<path d="M 0.988281 -1.75 L 0.988281 -1.613281 L 0.601562 -1.613281 L 0.597656 -0.519531 C 0.597656 -0.425781 0.605469 -0.351562 0.621094 -0.300781 C 0.652344 -0.214844 0.710938 -0.171875 0.800781 -0.171875 C 0.847656 -0.171875 0.886719 -0.183594 0.921875 -0.203125 C 0.953125 -0.226562 0.992188 -0.257812 1.035156 -0.304688 L 1.085938 -0.265625 L 1.042969 -0.207031 C 0.976562 -0.117188 0.90625 -0.0546875 0.832031 -0.0195312 C 0.757812 0.015625 0.6875 0.0351562 0.621094 0.0351562 C 0.472656 0.0351562 0.371094 -0.03125 0.316406 -0.164062 C 0.289062 -0.234375 0.273438 -0.335938 0.273438 -0.464844 L 0.273438 -1.613281 L 0.0664062 -1.613281 C 0.0585938 -1.617188 0.0546875 -1.621094 0.0507812 -1.625 C 0.046875 -1.628906 0.046875 -1.632812 0.046875 -1.640625 C 0.046875 -1.652344 0.0507812 -1.664062 0.0546875 -1.671875 C 0.0625 -1.679688 0.078125 -1.695312 0.109375 -1.71875 C 0.195312 -1.789062 0.261719 -1.847656 0.300781 -1.894531 C 0.339844 -1.941406 0.429688 -2.058594 0.570312 -2.25 C 0.585938 -2.25 0.597656 -2.25 0.601562 -2.246094 C 0.605469 -2.242188 0.605469 -2.234375 0.605469 -2.21875 L 0.605469 -1.75 Z "/>
</g>
</g>
</defs>
<g fill="rgb(100%, 100%, 100%)" fill-opacity="1">
<use xlink:href="#glyph-0-0" x="30" y="22.916992"/>
<use xlink:href="#glyph-0-1" x="33" y="22.916992"/>
<use xlink:href="#glyph-0-2" x="34" y="22.916992"/>
<use xlink:href="#glyph-0-3" x="36" y="22.916992"/>
<use xlink:href="#glyph-0-2" x="38" y="22.916992"/>
<use xlink:href="#glyph-0-4" x="40" y="22.916992"/>
<use xlink:href="#glyph-0-5" x="42" y="22.916992"/>
</g>
</svg>
