<?xml version="1.0" encoding="UTF-8"?>
<svg xmlns="http://www.w3.org/2000/svg" xmlns:xlink="http://www.w3.org/1999/xlink" width="3840" height="2160" viewBox="0 0 3840 2160">
<defs>
<g>
<g id="glyph-0-0">
<path d="M 1.648438 -2.457031 C 1.703125 -2.574219 1.777344 -2.660156 1.863281 -2.714844 C 1.949219 -2.773438 2.050781 -2.800781 2.171875 -2.800781 C 2.390625 -2.800781 2.546875 -2.714844 2.636719 -2.546875 C 2.726562 -2.375 2.769531 -2.054688 2.769531 -1.585938 L 2.769531 0 L 2.359375 0 L 2.359375 -1.566406 C 2.359375 -1.953125 2.339844 -2.191406 2.296875 -2.285156 C 2.253906 -2.378906 2.175781 -2.425781 2.0625 -2.425781 C 1.929688 -2.425781 1.839844 -2.375 1.792969 -2.273438 C 1.746094 -2.171875 1.722656 -1.9375 1.722656 -1.566406 L 1.722656 0 L 1.3125 0 L 1.3125 -1.566406 C 1.3125 -1.957031 1.289062 -2.195312 1.242188 -2.289062 C 1.195312 -2.378906 1.113281 -2.425781 0.992188 -2.425781 C 0.871094 -2.425781 0.789062 -2.375 0.742188 -2.273438 C 0.695312 -2.171875 0.671875 -1.9375 0.671875 -1.566406 L 0.671875 0 L 0.265625 0 L 0.265625 -2.734375 L 0.671875 -2.734375 L 0.671875 -2.5 C 0.726562 -2.597656 0.792969 -2.671875 0.875 -2.722656 C 0.957031 -2.773438 1.046875 -2.800781 1.148438 -2.800781 C 1.273438 -2.800781 1.375 -2.773438 1.457031 -2.714844 C 1.539062 -2.65625 1.605469 -2.570312 1.648438 -2.457031 Z "/>
</g>
<g id="glyph-0-1">
<path d="M 1.503906 -2.417969 C 1.277344 -2.417969 1.101562 -2.332031 0.984375 -2.152344 C 0.867188 -1.976562 0.8125 -1.714844 0.8125 -1.363281 C 0.8125 -1.015625 0.867188 -0.753906 0.984375 -0.578125 C 1.101562 -0.398438 1.277344 -0.308594 1.503906 -0.308594 C 1.734375 -0.308594 1.90625 -0.398438 2.023438 -0.578125 C 2.140625 -0.757812 2.199219 -1.019531 2.199219 -1.363281 C 2.199219 -1.710938 2.140625 -1.976562 2.023438 -2.152344 C 1.90625 -2.332031 1.734375 -2.417969 1.503906 -2.417969 Z M 1.503906 -2.800781 C 1.882812 -2.800781 2.171875 -2.675781 2.375 -2.429688 C 2.574219 -2.183594 2.675781 -1.832031 2.675781 -1.363281 C 2.675781 -0.898438 2.574219 -0.542969 2.375 -0.296875 C 2.175781 -0.0507812 1.882812 0.0703125 1.503906 0.0703125 C 1.125 0.0703125 0.835938 -0.0507812 0.632812 -0.296875 C 0.433594 -0.542969 0.335938 -0.898438 0.335938 -1.363281 C 0.335938 -1.828125 0.433594 -2.1875 0.632812 -2.429688 C 0.835938 -2.675781 1.125 -2.800781 1.503906 -2.800781 Z "/>
</g>
<g id="glyph-0-2">
<path d="M 2.09375 -2.386719 L 2.09375 -3.796875 L 2.542969 -3.796875 L 2.542969 0 L 2.09375 0 L 2.09375 -0.34375 C 2.019531 -0.210938 1.921875 -0.105469 1.796875 -0.0351562 C 1.671875 0.0351562 1.527344 0.0703125 1.363281 0.0703125 C 1.035156 0.0703125 0.773438 -0.0585938 0.585938 -0.3125 C 0.394531 -0.570312 0.300781 -0.921875 0.300781 -1.375 C 0.300781 -1.820312 0.394531 -2.167969 0.585938 -2.421875 C 0.777344 -2.675781 1.035156 -2.800781 1.363281 -2.800781 C 1.527344 -2.800781 1.675781 -2.765625 1.800781 -2.695312 C 1.925781 -2.625 2.023438 -2.519531 2.09375 -2.386719 Z M 0.773438 -1.363281 C 0.773438 -1.015625 0.828125 -0.753906 0.941406 -0.578125 C 1.050781 -0.398438 1.214844 -0.308594 1.429688 -0.308594 C 1.648438 -0.308594 1.8125 -0.398438 1.925781 -0.578125 C 2.039062 -0.757812 2.09375 -1.019531 2.09375 -1.363281 C 2.09375 -1.710938 2.039062 -1.972656 1.925781 -2.152344 C 1.8125 -2.332031 1.648438 -2.417969 1.429688 -2.417969 C 1.214844 -2.417969 1.050781 -2.332031 0.941406 -2.152344 C 0.828125 -1.976562 0.773438 -1.714844 0.773438 -1.363281 Z "/>
</g>
<g id="glyph-0-3">
<path d="M 2.734375 -1.59375 L 2.734375 -1.371094 L 0.789062 -1.371094 L 0.789062 -1.359375 C 0.777344 -0.984375 0.847656 -0.71875 1.003906 -0.554688 C 1.15625 -0.390625 1.375 -0.308594 1.660156 -0.308594 C 1.804688 -0.308594 1.953125 -0.332031 2.109375 -0.378906 C 2.265625 -0.425781 2.433594 -0.492188 2.609375 -0.585938 L 2.609375 -0.140625 C 2.4375 -0.0703125 2.273438 -0.015625 2.117188 0.0195312 C 1.957031 0.0546875 1.804688 0.0703125 1.65625 0.0703125 C 1.230469 0.0703125 0.898438 -0.0546875 0.660156 -0.3125 C 0.421875 -0.566406 0.300781 -0.917969 0.300781 -1.363281 C 0.300781 -1.800781 0.417969 -2.148438 0.652344 -2.410156 C 0.886719 -2.671875 1.199219 -2.800781 1.589844 -2.800781 C 1.9375 -2.800781 2.210938 -2.683594 2.414062 -2.445312 C 2.613281 -2.210938 2.722656 -1.925781 2.734375 -1.59375 Z M 2.285156 -1.722656 C 2.265625 -1.914062 2.195312 -2.074219 2.078125 -2.214844 C 1.960938 -2.351562 1.792969 -2.417969 1.570312 -2.417969 C 1.351562 -2.417969 1.175781 -2.347656 1.035156 -2.203125 C 0.894531 -2.0625 0.820312 -1.898438 0.804688 -1.722656 Z "/>
</g>
<g id="glyph-0-4">
<path d="M 1.753906 -0.988281 C 1.753906 -0.785156 1.792969 -0.632812 1.867188 -0.53125 C 1.941406 -0.429688 2.050781 -0.378906 2.195312 -0.378906 L 2.71875 -0.378906 L 2.71875 0 L 2.152344 0 C 1.882812 0 1.675781 -0.0859375 1.527344 -0.257812 C 1.378906 -0.429688 1.304688 -0.671875 1.304688 -0.988281 L 1.304688 -3.460938 L 0.585938 -3.460938 L 0.585938 -3.8125 L 1.753906 -3.8125 Z "/>
</g>
<g id="glyph-0-5">
<rect x="0" y="0" width="0" height="0" mask="url(#mask-0)"/>
</g>
<g id="glyph-0-6">
<path d="M 0.214844 -1.21875 L 2.796875 -1.21875 L 2.796875 -0.808594 L 0.214844 -0.808594 Z M 0.214844 -2.371094 L 2.796875 -2.371094 L 2.796875 -1.957031 L 0.214844 -1.957031 Z "/>
</g>
<g id="glyph-0-7">
<path d="M 2.621094 -0.128906 C 2.496094 -0.0625 2.367188 -0.0117188 2.234375 0.0195312 C 2.101562 0.0546875 1.960938 0.0703125 1.8125 0.0703125 C 1.347656 0.0703125 0.984375 -0.09375 0.726562 -0.425781 C 0.46875 -0.753906 0.339844 -1.21875 0.339844 -1.820312 C 0.339844 -2.414062 0.46875 -2.878906 0.730469 -3.210938 C 0.988281 -3.542969 1.351562 -3.710938 1.8125 -3.710938 C 1.960938 -3.710938 2.101562 -3.695312 2.234375 -3.660156 C 2.367188 -3.628906 2.496094 -3.578125 2.621094 -3.511719 L 2.621094 -3.003906 C 2.5 -3.105469 2.371094 -3.179688 2.230469 -3.234375 C 2.09375 -3.285156 1.953125 -3.3125 1.8125 -3.3125 C 1.492188 -3.3125 1.253906 -3.1875 1.09375 -2.9375 C 0.933594 -2.691406 0.855469 -2.320312 0.855469 -1.820312 C 0.855469 -1.320312 0.933594 -0.949219 1.09375 -0.699219 C 1.253906 -0.453125 1.492188 -0.328125 1.8125 -0.328125 C 1.957031 -0.328125 2.097656 -0.355469 2.234375 -0.40625 C 2.371094 -0.460938 2.5 -0.535156 2.621094 -0.632812 Z "/>
</g>
<g id="glyph-0-8">
<path d="M 2.566406 -1.695312 L 2.566406 0 L 2.113281 0 L 2.113281 -1.695312 C 2.113281 -1.941406 2.070312 -2.121094 1.984375 -2.234375 C 1.898438 -2.351562 1.761719 -2.410156 1.578125 -2.410156 C 1.367188 -2.410156 1.207031 -2.335938 1.09375 -2.1875 C 0.980469 -2.039062 0.925781 -1.824219 0.925781 -1.546875 L 0.925781 0 L 0.476562 0 L 0.476562 -3.796875 L 0.925781 -3.796875 L 0.925781 -2.324219 C 1.003906 -2.480469 1.113281 -2.597656 1.25 -2.679688 C 1.386719 -2.761719 1.546875 -2.800781 1.734375 -2.800781 C 2.015625 -2.800781 2.222656 -2.707031 2.359375 -2.527344 C 2.496094 -2.34375 2.566406 -2.066406 2.566406 -1.695312 Z "/>
</g>
<g id="glyph-0-9">
<path d="M 1.714844 -1.375 L 1.566406 -1.375 C 1.304688 -1.375 1.105469 -1.328125 0.972656 -1.238281 C 0.839844 -1.144531 0.773438 -1.007812 0.773438 -0.824219 C 0.773438 -0.660156 0.824219 -0.53125 0.921875 -0.441406 C 1.023438 -0.351562 1.160156 -0.304688 1.335938 -0.304688 C 1.582031 -0.304688 1.777344 -0.390625 1.917969 -0.5625 C 2.058594 -0.734375 2.132812 -0.972656 2.132812 -1.273438 L 2.132812 -1.375 Z M 2.585938 -1.558594 L 2.585938 0 L 2.132812 0 L 2.132812 -0.40625 C 2.039062 -0.242188 1.917969 -0.121094 1.769531 -0.046875 C 1.625 0.03125 1.449219 0.0703125 1.242188 0.0703125 C 0.960938 0.0703125 0.738281 -0.0078125 0.574219 -0.164062 C 0.40625 -0.320312 0.324219 -0.53125 0.324219 -0.796875 C 0.324219 -1.101562 0.425781 -1.332031 0.632812 -1.488281 C 0.835938 -1.648438 1.136719 -1.726562 1.53125 -1.726562 L 2.132812 -1.726562 L 2.132812 -1.796875 C 2.132812 -2.015625 2.078125 -2.171875 1.96875 -2.273438 C 1.859375 -2.371094 1.683594 -2.417969 1.445312 -2.417969 C 1.292969 -2.417969 1.136719 -2.398438 0.980469 -2.351562 C 0.824219 -2.308594 0.671875 -2.246094 0.523438 -2.160156 L 0.523438 -2.609375 C 0.691406 -2.671875 0.851562 -2.722656 1.003906 -2.753906 C 1.15625 -2.785156 1.300781 -2.800781 1.445312 -2.800781 C 1.671875 -2.800781 1.863281 -2.765625 2.023438 -2.699219 C 2.183594 -2.632812 2.316406 -2.535156 2.414062 -2.398438 C 2.476562 -2.316406 2.519531 -2.21875 2.546875 -2.097656 C 2.574219 -1.976562 2.585938 -1.800781 2.585938 -1.558594 Z "/>
</g>
<g id="glyph-0-10">
<path d="M 0.773438 -2.726562 L 1.921875 -2.726562 L 1.921875 -0.347656 L 2.8125 -0.347656 L 2.8125 0 L 0.582031 0 L 0.582031 -0.347656 L 1.472656 -0.347656 L 1.472656 -2.375 L 0.773438 -2.375 Z M 1.472656 -3.785156 L 1.921875 -3.785156 L 1.921875 -3.21875 L 1.472656 -3.21875 Z "/>
</g>
<g id="glyph-0-11">
<path d="M 2.566406 -1.695312 L 2.566406 0 L 2.113281 0 L 2.113281 -1.695312 C 2.113281 -1.941406 2.070312 -2.121094 1.984375 -2.234375 C 1.898438 -2.351562 1.761719 -2.410156 1.578125 -2.410156 C 1.367188 -2.410156 1.207031 -2.335938 1.09375 -2.1875 C 0.980469 -2.039062 0.925781 -1.824219 0.925781 -1.546875 L 0.925781 0 L 0.476562 0 L 0.476562 -2.734375 L 0.925781 -2.734375 L 0.925781 -2.324219 C 1.003906 -2.480469 1.113281 -2.597656 1.25 -2.679688 C 1.386719 -2.761719 1.546875 -2.800781 1.734375 -2.800781 C 2.015625 -2.800781 2.222656 -2.707031 2.359375 -2.527344 C 2.496094 -2.34375 2.566406 -2.066406 2.566406 -1.695312 Z "/>
</g>
<g id="glyph-0-12">
<path d="M 2.085938 -4.039062 C 1.871094 -3.667969 1.710938 -3.296875 1.601562 -2.929688 C 1.496094 -2.558594 1.441406 -2.1875 1.441406 -1.8125 C 1.441406 -1.441406 1.496094 -1.070312 1.601562 -0.699219 C 1.710938 -0.332031 1.871094 0.0390625 2.085938 0.414062 L 1.695312 0.414062 C 1.449219 0.0273438 1.269531 -0.347656 1.148438 -0.714844 C 1.027344 -1.082031 0.96875 -1.449219 0.96875 -1.8125 C 0.96875 -2.175781 1.027344 -2.542969 1.148438 -2.910156 C 1.269531 -3.277344 1.449219 -3.652344 1.695312 -4.039062 Z "/>
</g>
</g>
<image id="source-10" x="0" y="0" width="0" height="0"/>
<mask id="mask-0">
<use xlink:href="#source-10"/>
</mask>
</defs>
<g fill="rgb(86.666667%, 86.666667%, 86.666667%)" fill-opacity="1">
<use xlink:href="#glyph-0-0" x="30" y="24.641602"/>
<use xlink:href="#glyph-0-1" x="33" y="24.641602"/>
<use xlink:href="#glyph-0-2" x="36" y="24.641602"/>
<use xlink:href="#glyph-0-3" x="39" y="24.641602"/>
<use xlink:href="#glyph-0-4" x="42" y="24.641602"/>
<use xlink:href="#glyph-0-5" x="45" y="24.641602"/>
<use xlink:href="#glyph-0-6" x="48" y="24.641602"/>
<use xlink:href="#glyph-0-5" x="51" y="24.641602"/>
<use xlink:href="#glyph-0-7" x="54" y="24.641602"/>
<use xlink:href="#glyph-0-8" x="57" y="24.641602"/>
<use xlink:href="#glyph-0-9" x="60" y="24.641602"/>
<use xlink:href="#glyph-0-10" x="63" y="24.641602"/>
<use xlink:href="#glyph-0-11" x="66" y="24.641602"/>
<use xlink:href="#glyph-0-12" x="69" y="24.641602"/>
</g>
</svg>
