<?xml version="1.0" encoding="UTF-8"?>
<svg xmlns="http://www.w3.org/2000/svg" xmlns:xlink="http://www.w3.org/1999/xlink" width="3840" height="2160" viewBox="0 0 3840 2160">
<defs>
<g>
<g id="glyph-0-0">
<path d="M 0.320312 -1.007812 C 0.40625 -0.78125 0.507812 -0.601562 0.621094 -0.46875 C 0.820312 -0.234375 1.066406 -0.121094 1.359375 -0.121094 C 1.519531 -0.121094 1.65625 -0.171875 1.773438 -0.269531 C 1.890625 -0.371094 1.949219 -0.511719 1.949219 -0.695312 C 1.949219 -0.855469 1.890625 -0.996094 1.773438 -1.117188 C 1.695312 -1.195312 1.535156 -1.308594 1.289062 -1.460938 L 0.863281 -1.726562 C 0.734375 -1.808594 0.628906 -1.890625 0.554688 -1.976562 C 0.414062 -2.132812 0.34375 -2.308594 0.34375 -2.496094 C 0.34375 -2.75 0.425781 -2.960938 0.59375 -3.128906 C 0.761719 -3.296875 0.984375 -3.378906 1.257812 -3.378906 C 1.375 -3.378906 1.511719 -3.351562 1.671875 -3.292969 C 1.832031 -3.238281 1.921875 -3.210938 1.945312 -3.210938 C 2.007812 -3.210938 2.050781 -3.226562 2.074219 -3.253906 C 2.097656 -3.285156 2.117188 -3.324219 2.128906 -3.378906 L 2.230469 -3.378906 L 2.339844 -2.3125 L 2.222656 -2.3125 C 2.140625 -2.632812 2.007812 -2.859375 1.828125 -2.984375 C 1.648438 -3.113281 1.472656 -3.175781 1.296875 -3.175781 C 1.160156 -3.175781 1.039062 -3.136719 0.9375 -3.054688 C 0.835938 -2.976562 0.785156 -2.863281 0.785156 -2.71875 C 0.785156 -2.589844 0.824219 -2.480469 0.902344 -2.390625 C 0.980469 -2.296875 1.101562 -2.199219 1.265625 -2.101562 L 1.707031 -1.828125 C 1.980469 -1.660156 2.175781 -1.503906 2.289062 -1.363281 C 2.398438 -1.21875 2.453125 -1.050781 2.453125 -0.855469 C 2.453125 -0.59375 2.355469 -0.375 2.15625 -0.199219 C 1.960938 -0.0234375 1.707031 0.0664062 1.398438 0.0664062 C 1.242188 0.0664062 1.082031 0.0351562 0.914062 -0.0234375 C 0.746094 -0.0820312 0.648438 -0.109375 0.625 -0.109375 C 0.566406 -0.109375 0.527344 -0.09375 0.507812 -0.0546875 C 0.488281 -0.0195312 0.472656 0.0195312 0.464844 0.0585938 L 0.355469 0.0585938 L 0.207031 -1.007812 Z "/>
</g>
<g id="glyph-0-1">
<path d="M 0.125 -1.132812 C 0.125 -1.457031 0.230469 -1.730469 0.4375 -1.953125 C 0.640625 -2.179688 0.90625 -2.289062 1.230469 -2.289062 C 1.554688 -2.289062 1.820312 -2.183594 2.03125 -1.972656 C 2.242188 -1.761719 2.347656 -1.480469 2.347656 -1.128906 C 2.347656 -0.804688 2.246094 -0.523438 2.039062 -0.28125 C 1.835938 -0.0429688 1.570312 0.0742188 1.246094 0.0742188 C 0.933594 0.0742188 0.667969 -0.0390625 0.453125 -0.269531 C 0.234375 -0.5 0.125 -0.785156 0.125 -1.132812 Z M 1.164062 -2.144531 C 1.035156 -2.144531 0.921875 -2.101562 0.828125 -2.015625 C 0.664062 -1.867188 0.582031 -1.613281 0.582031 -1.25 C 0.582031 -0.960938 0.648438 -0.691406 0.78125 -0.4375 C 0.910156 -0.1875 1.09375 -0.0625 1.324219 -0.0625 C 1.507812 -0.0625 1.648438 -0.148438 1.746094 -0.316406 C 1.84375 -0.484375 1.894531 -0.703125 1.894531 -0.972656 C 1.894531 -1.253906 1.832031 -1.519531 1.707031 -1.769531 C 1.582031 -2.019531 1.398438 -2.144531 1.164062 -2.144531 Z "/>
</g>
<g id="glyph-0-2">
<path d="M 0.0976562 -0.0703125 C 0.269531 -0.078125 0.382812 -0.109375 0.4375 -0.164062 C 0.492188 -0.21875 0.519531 -0.339844 0.519531 -0.519531 L 0.519531 -2.085938 L 0.101562 -2.085938 L 0.101562 -2.25 L 0.519531 -2.25 C 0.519531 -2.507812 0.554688 -2.726562 0.625 -2.902344 C 0.757812 -3.242188 1.003906 -3.414062 1.359375 -3.414062 C 1.503906 -3.414062 1.632812 -3.382812 1.746094 -3.328125 C 1.859375 -3.269531 1.914062 -3.195312 1.914062 -3.097656 C 1.914062 -3.042969 1.894531 -2.996094 1.855469 -2.953125 C 1.816406 -2.910156 1.769531 -2.890625 1.714844 -2.890625 C 1.667969 -2.890625 1.625 -2.90625 1.59375 -2.933594 C 1.558594 -2.960938 1.515625 -3.011719 1.46875 -3.082031 L 1.429688 -3.148438 C 1.40625 -3.179688 1.378906 -3.210938 1.347656 -3.234375 C 1.316406 -3.257812 1.273438 -3.269531 1.21875 -3.269531 C 1.09375 -3.269531 1.011719 -3.207031 0.96875 -3.085938 C 0.941406 -3.019531 0.929688 -2.933594 0.929688 -2.828125 L 0.929688 -2.25 L 1.542969 -2.25 L 1.542969 -2.085938 L 0.933594 -2.085938 L 0.933594 -0.519531 C 0.933594 -0.335938 0.960938 -0.21875 1.007812 -0.167969 C 1.058594 -0.117188 1.1875 -0.0820312 1.398438 -0.0703125 L 1.398438 0 L 0.0976562 0 Z "/>
</g>
<g id="glyph-0-3">
<path d="M 1.273438 -2.25 L 1.273438 -2.074219 L 0.773438 -2.074219 L 0.769531 -0.667969 C 0.769531 -0.546875 0.78125 -0.453125 0.800781 -0.386719 C 0.839844 -0.273438 0.917969 -0.21875 1.03125 -0.21875 C 1.089844 -0.21875 1.140625 -0.234375 1.183594 -0.261719 C 1.226562 -0.289062 1.273438 -0.332031 1.332031 -0.394531 L 1.394531 -0.339844 L 1.339844 -0.265625 C 1.253906 -0.152344 1.167969 -0.0703125 1.070312 -0.0234375 C 0.976562 0.0234375 0.886719 0.046875 0.796875 0.046875 C 0.605469 0.046875 0.476562 -0.0390625 0.40625 -0.210938 C 0.371094 -0.304688 0.351562 -0.429688 0.351562 -0.59375 L 0.351562 -2.074219 L 0.0859375 -2.074219 C 0.078125 -2.078125 0.0703125 -2.085938 0.0664062 -2.089844 C 0.0625 -2.09375 0.0625 -2.101562 0.0625 -2.109375 C 0.0625 -2.125 0.0664062 -2.136719 0.0703125 -2.148438 C 0.078125 -2.15625 0.101562 -2.175781 0.140625 -2.210938 C 0.253906 -2.304688 0.335938 -2.378906 0.382812 -2.433594 C 0.433594 -2.492188 0.550781 -2.644531 0.734375 -2.894531 C 0.757812 -2.894531 0.769531 -2.890625 0.773438 -2.886719 C 0.777344 -2.882812 0.777344 -2.871094 0.777344 -2.851562 L 0.777344 -2.25 Z "/>
</g>
<g id="glyph-0-4">
<path d="M 0.0820312 -0.0625 C 0.207031 -0.0742188 0.292969 -0.0976562 0.335938 -0.125 C 0.398438 -0.171875 0.433594 -0.269531 0.433594 -0.410156 L 0.433594 -1.671875 C 0.433594 -1.792969 0.417969 -1.871094 0.382812 -1.910156 C 0.351562 -1.945312 0.300781 -1.964844 0.226562 -1.964844 C 0.191406 -1.964844 0.167969 -1.964844 0.148438 -1.960938 C 0.132812 -1.957031 0.113281 -1.953125 0.0898438 -1.945312 L 0.0898438 -2.027344 L 0.265625 -2.085938 C 0.328125 -2.109375 0.433594 -2.148438 0.578125 -2.203125 C 0.722656 -2.257812 0.800781 -2.285156 0.808594 -2.285156 C 0.816406 -2.285156 0.820312 -2.28125 0.824219 -2.273438 C 0.824219 -2.265625 0.824219 -2.25 0.824219 -2.226562 L 0.824219 -1.898438 C 0.984375 -2.042969 1.125 -2.144531 1.242188 -2.199219 C 1.359375 -2.257812 1.480469 -2.285156 1.605469 -2.285156 C 1.773438 -2.285156 1.90625 -2.226562 2.003906 -2.113281 C 2.054688 -2.050781 2.101562 -1.96875 2.132812 -1.863281 C 2.253906 -1.984375 2.359375 -2.074219 2.449219 -2.132812 C 2.601562 -2.234375 2.761719 -2.285156 2.921875 -2.285156 C 3.183594 -2.285156 3.359375 -2.179688 3.445312 -1.964844 C 3.496094 -1.84375 3.523438 -1.65625 3.523438 -1.394531 L 3.523438 -0.382812 C 3.523438 -0.265625 3.546875 -0.1875 3.601562 -0.144531 C 3.652344 -0.101562 3.742188 -0.078125 3.875 -0.0625 L 3.875 0 L 2.777344 0 L 2.777344 -0.0703125 C 2.917969 -0.0820312 3.011719 -0.109375 3.054688 -0.152344 C 3.101562 -0.195312 3.121094 -0.289062 3.121094 -0.421875 L 3.121094 -1.476562 C 3.121094 -1.632812 3.105469 -1.75 3.070312 -1.824219 C 3.011719 -1.957031 2.894531 -2.023438 2.71875 -2.023438 C 2.613281 -2.023438 2.507812 -1.988281 2.402344 -1.917969 C 2.34375 -1.878906 2.269531 -1.8125 2.179688 -1.722656 L 2.179688 -0.472656 C 2.179688 -0.339844 2.203125 -0.242188 2.25 -0.171875 C 2.296875 -0.105469 2.394531 -0.0703125 2.542969 -0.0625 L 2.542969 0 L 1.421875 0 L 1.421875 -0.0625 C 1.578125 -0.0820312 1.675781 -0.121094 1.71875 -0.175781 C 1.761719 -0.230469 1.78125 -0.367188 1.78125 -0.582031 L 1.78125 -1.265625 C 1.78125 -1.515625 1.765625 -1.691406 1.734375 -1.785156 C 1.679688 -1.945312 1.566406 -2.023438 1.390625 -2.023438 C 1.292969 -2.023438 1.195312 -1.996094 1.097656 -1.941406 C 1.003906 -1.886719 0.917969 -1.816406 0.84375 -1.726562 L 0.84375 -0.394531 C 0.84375 -0.269531 0.867188 -0.183594 0.910156 -0.136719 C 0.953125 -0.0898438 1.046875 -0.0664062 1.191406 -0.0625 L 1.191406 0 L 0.0820312 0 Z "/>
</g>
<g id="glyph-0-5">
<path d="M 1.433594 -1.351562 C 1.246094 -1.289062 1.089844 -1.222656 0.96875 -1.148438 C 0.734375 -1.003906 0.617188 -0.839844 0.617188 -0.65625 C 0.617188 -0.507812 0.667969 -0.398438 0.765625 -0.328125 C 0.828125 -0.28125 0.898438 -0.257812 0.976562 -0.257812 C 1.085938 -0.257812 1.1875 -0.289062 1.285156 -0.347656 C 1.382812 -0.410156 1.433594 -0.484375 1.433594 -0.578125 Z M 0.183594 -0.484375 C 0.183594 -0.722656 0.300781 -0.917969 0.539062 -1.078125 C 0.6875 -1.175781 0.984375 -1.308594 1.433594 -1.476562 L 1.433594 -1.683594 C 1.433594 -1.847656 1.417969 -1.964844 1.382812 -2.027344 C 1.328125 -2.136719 1.214844 -2.191406 1.039062 -2.191406 C 0.957031 -2.191406 0.878906 -2.171875 0.804688 -2.128906 C 0.730469 -2.085938 0.691406 -2.023438 0.691406 -1.949219 C 0.691406 -1.929688 0.695312 -1.894531 0.703125 -1.847656 C 0.710938 -1.800781 0.714844 -1.773438 0.714844 -1.761719 C 0.714844 -1.667969 0.683594 -1.605469 0.625 -1.570312 C 0.589844 -1.546875 0.550781 -1.539062 0.503906 -1.539062 C 0.429688 -1.539062 0.375 -1.5625 0.335938 -1.609375 C 0.296875 -1.65625 0.277344 -1.710938 0.277344 -1.769531 C 0.277344 -1.882812 0.347656 -2.003906 0.488281 -2.128906 C 0.628906 -2.253906 0.835938 -2.3125 1.105469 -2.3125 C 1.421875 -2.3125 1.636719 -2.210938 1.75 -2.007812 C 1.808594 -1.894531 1.839844 -1.730469 1.839844 -1.515625 L 1.839844 -0.539062 C 1.839844 -0.445312 1.84375 -0.378906 1.859375 -0.34375 C 1.878906 -0.277344 1.921875 -0.246094 1.988281 -0.246094 C 2.027344 -0.246094 2.058594 -0.253906 2.082031 -0.265625 C 2.105469 -0.277344 2.148438 -0.304688 2.210938 -0.347656 L 2.210938 -0.21875 C 2.15625 -0.15625 2.101562 -0.105469 2.039062 -0.0625 C 1.949219 0 1.855469 0.03125 1.761719 0.03125 C 1.652344 0.03125 1.570312 -0.0078125 1.523438 -0.078125 C 1.472656 -0.148438 1.445312 -0.234375 1.441406 -0.335938 C 1.316406 -0.226562 1.210938 -0.148438 1.125 -0.09375 C 0.976562 -0.0078125 0.835938 0.0351562 0.699219 0.0351562 C 0.558594 0.0351562 0.4375 -0.0117188 0.335938 -0.109375 C 0.234375 -0.210938 0.183594 -0.335938 0.183594 -0.484375 Z "/>
</g>
<g id="glyph-0-6">
<path d="M 1.15625 -2.242188 L 1.15625 -2.175781 C 1.09375 -2.171875 1.042969 -2.164062 1 -2.148438 C 0.957031 -2.132812 0.933594 -2.101562 0.933594 -2.054688 C 0.933594 -2.023438 0.976562 -1.933594 1.0625 -1.792969 C 1.109375 -1.71875 1.167969 -1.625 1.238281 -1.515625 C 1.335938 -1.648438 1.40625 -1.75 1.453125 -1.828125 C 1.53125 -1.945312 1.570312 -2.023438 1.570312 -2.0625 C 1.570312 -2.101562 1.554688 -2.132812 1.519531 -2.144531 C 1.484375 -2.160156 1.4375 -2.171875 1.375 -2.175781 L 1.375 -2.242188 L 2.164062 -2.242188 L 2.164062 -2.175781 C 2.082031 -2.167969 2.003906 -2.144531 1.929688 -2.109375 C 1.859375 -2.070312 1.800781 -2.019531 1.757812 -1.957031 L 1.339844 -1.351562 L 1.984375 -0.375 C 2.066406 -0.25 2.136719 -0.167969 2.195312 -0.128906 C 2.253906 -0.09375 2.320312 -0.0703125 2.394531 -0.0703125 L 2.394531 0 L 1.386719 0 L 1.386719 -0.0703125 L 1.457031 -0.0742188 C 1.496094 -0.078125 1.527344 -0.0859375 1.550781 -0.109375 C 1.578125 -0.128906 1.589844 -0.152344 1.589844 -0.179688 C 1.589844 -0.210938 1.558594 -0.28125 1.496094 -0.386719 C 1.46875 -0.4375 1.421875 -0.507812 1.363281 -0.597656 C 1.335938 -0.640625 1.296875 -0.703125 1.242188 -0.78125 C 1.1875 -0.859375 1.140625 -0.925781 1.101562 -0.980469 L 0.710938 -0.367188 C 0.664062 -0.296875 0.632812 -0.246094 0.621094 -0.222656 C 0.609375 -0.199219 0.605469 -0.175781 0.605469 -0.160156 C 0.605469 -0.128906 0.617188 -0.109375 0.644531 -0.101562 C 0.667969 -0.0898438 0.722656 -0.078125 0.808594 -0.0703125 L 0.808594 0 L 0.0859375 0 L 0.0859375 -0.0703125 C 0.171875 -0.0859375 0.238281 -0.109375 0.28125 -0.136719 C 0.324219 -0.164062 0.378906 -0.230469 0.449219 -0.328125 L 1.019531 -1.15625 L 0.550781 -1.867188 C 0.457031 -2.007812 0.390625 -2.09375 0.355469 -2.117188 C 0.320312 -2.144531 0.238281 -2.164062 0.121094 -2.175781 L 0.121094 -2.242188 Z "/>
</g>
</g>
</defs>
<g fill="rgb(100%, 100%, 0%)" fill-opacity="1">
<use xlink:href="#glyph-0-0" x="30" y="23.75"/>
<use xlink:href="#glyph-0-1" x="33" y="23.75"/>
<use xlink:href="#glyph-0-2" x="36" y="23.75"/>
<use xlink:href="#glyph-0-3" x="38" y="23.75"/>
<use xlink:href="#glyph-0-4" x="39" y="23.75"/>
<use xlink:href="#glyph-0-5" x="43" y="23.75"/>
<use xlink:href="#glyph-0-6" x="45" y="23.75"/>
</g>
</svg>
