<?xml version="1.0" encoding="UTF-8"?>
<svg xmlns="http://www.w3.org/2000/svg" xmlns:xlink="http://www.w3.org/1999/xlink" width="3840" height="2160" viewBox="0 0 3840 2160">
<defs>
<g>
<g id="glyph-0-0">
<path d="M 1.972656 -1.972656 L 1.265625 -1.03125 L 2.039062 0 L 1.664062 0 L 1.085938 -0.792969 L 0.507812 0 L 0.132812 0 L 0.910156 -1.03125 L 0.203125 -1.972656 L 0.5625 -1.972656 L 1.085938 -1.261719 L 1.605469 -1.972656 Z "/>
</g>
<g id="glyph-0-1">
<rect x="0" y="0" width="0" height="0" mask="url(#mask-0)"/>
</g>
<g id="glyph-0-2">
<path d="M 0.15625 -0.882812 L 2.019531 -0.882812 L 2.019531 -0.582031 L 0.15625 -0.582031 Z M 0.15625 -1.710938 L 2.019531 -1.710938 L 2.019531 -1.414062 L 0.15625 -1.414062 Z "/>
</g>
<g id="glyph-0-3">
<path d="M 0.558594 -1.96875 L 1.386719 -1.96875 L 1.386719 -0.253906 L 2.03125 -0.253906 L 2.03125 0 L 0.417969 0 L 0.417969 -0.253906 L 1.0625 -0.253906 L 1.0625 -1.714844 L 0.558594 -1.714844 Z M 1.0625 -2.734375 L 1.386719 -2.734375 L 1.386719 -2.324219 L 1.0625 -2.324219 Z "/>
</g>
<g id="glyph-0-4">
<path d="M 1.851562 -1.222656 L 1.851562 0 L 1.527344 0 L 1.527344 -1.222656 C 1.527344 -1.402344 1.496094 -1.53125 1.433594 -1.613281 C 1.371094 -1.699219 1.273438 -1.738281 1.140625 -1.738281 C 0.988281 -1.738281 0.871094 -1.6875 0.789062 -1.578125 C 0.707031 -1.472656 0.667969 -1.316406 0.667969 -1.117188 L 0.667969 0 L 0.34375 0 L 0.34375 -1.972656 L 0.667969 -1.972656 L 0.667969 -1.679688 C 0.726562 -1.792969 0.804688 -1.875 0.902344 -1.933594 C 1 -1.992188 1.117188 -2.023438 1.253906 -2.023438 C 1.453125 -2.023438 1.605469 -1.957031 1.703125 -1.824219 C 1.804688 -1.691406 1.851562 -1.492188 1.851562 -1.222656 Z "/>
</g>
<g id="glyph-0-5">
<path d="M 0.660156 -0.25 L 0.660156 0.75 L 0.335938 0.75 L 0.335938 -1.972656 L 0.660156 -1.972656 L 0.660156 -1.722656 C 0.714844 -1.820312 0.789062 -1.894531 0.878906 -1.945312 C 0.96875 -1.996094 1.070312 -2.023438 1.1875 -2.023438 C 1.425781 -2.023438 1.613281 -1.929688 1.75 -1.746094 C 1.886719 -1.5625 1.953125 -1.304688 1.953125 -0.976562 C 1.953125 -0.65625 1.886719 -0.40625 1.75 -0.222656 C 1.613281 -0.0390625 1.425781 0.0507812 1.1875 0.0507812 C 1.066406 0.0507812 0.964844 0.0273438 0.875 -0.0273438 C 0.785156 -0.078125 0.710938 -0.152344 0.660156 -0.25 Z M 1.613281 -0.984375 C 1.613281 -1.238281 1.574219 -1.425781 1.492188 -1.554688 C 1.414062 -1.683594 1.296875 -1.746094 1.140625 -1.746094 C 0.984375 -1.746094 0.863281 -1.683594 0.78125 -1.554688 C 0.699219 -1.425781 0.660156 -1.234375 0.660156 -0.984375 C 0.660156 -0.734375 0.703125 -0.546875 0.78125 -0.417969 C 0.863281 -0.289062 0.984375 -0.222656 1.140625 -0.222656 C 1.296875 -0.222656 1.414062 -0.289062 1.492188 -0.417969 C 1.574219 -0.542969 1.613281 -0.734375 1.613281 -0.984375 Z "/>
</g>
<g id="glyph-0-6">
<path d="M 0.34375 -0.746094 L 0.34375 -1.972656 L 0.667969 -1.972656 L 0.667969 -0.746094 C 0.667969 -0.570312 0.699219 -0.441406 0.761719 -0.355469 C 0.824219 -0.273438 0.921875 -0.230469 1.054688 -0.230469 C 1.207031 -0.230469 1.324219 -0.285156 1.40625 -0.390625 C 1.488281 -0.5 1.527344 -0.652344 1.527344 -0.855469 L 1.527344 -1.972656 L 1.851562 -1.972656 L 1.851562 0 L 1.527344 0 L 1.527344 -0.296875 C 1.46875 -0.183594 1.390625 -0.0976562 1.292969 -0.0351562 C 1.191406 0.0234375 1.074219 0.0507812 0.941406 0.0507812 C 0.742188 0.0507812 0.589844 -0.015625 0.492188 -0.148438 C 0.394531 -0.28125 0.34375 -0.480469 0.34375 -0.746094 Z "/>
</g>
<g id="glyph-0-7">
<path d="M 1.082031 -2.535156 L 1.082031 -1.972656 L 1.820312 -1.972656 L 1.820312 -1.722656 L 1.082031 -1.722656 L 1.082031 -0.652344 C 1.082031 -0.503906 1.109375 -0.402344 1.164062 -0.34375 C 1.21875 -0.289062 1.316406 -0.257812 1.453125 -0.257812 L 1.820312 -0.257812 L 1.820312 0 L 1.421875 0 C 1.179688 0 1.007812 -0.046875 0.90625 -0.144531 C 0.808594 -0.242188 0.757812 -0.410156 0.757812 -0.652344 L 0.757812 -1.722656 L 0.230469 -1.722656 L 0.230469 -1.972656 L 0.757812 -1.972656 L 0.757812 -2.535156 Z "/>
</g>
<g id="glyph-0-8">
<path d="M 1.714844 -1.90625 L 1.714844 -1.589844 C 1.621094 -1.644531 1.527344 -1.683594 1.433594 -1.710938 C 1.339844 -1.738281 1.246094 -1.75 1.148438 -1.75 C 1 -1.75 0.890625 -1.726562 0.820312 -1.679688 C 0.746094 -1.632812 0.710938 -1.558594 0.710938 -1.460938 C 0.710938 -1.375 0.738281 -1.308594 0.792969 -1.265625 C 0.847656 -1.222656 0.980469 -1.179688 1.195312 -1.136719 L 1.324219 -1.113281 C 1.484375 -1.082031 1.609375 -1.019531 1.691406 -0.929688 C 1.773438 -0.835938 1.816406 -0.71875 1.816406 -0.570312 C 1.816406 -0.375 1.746094 -0.222656 1.609375 -0.113281 C 1.46875 -0.00390625 1.277344 0.0507812 1.03125 0.0507812 C 0.933594 0.0507812 0.828125 0.0390625 0.722656 0.0195312 C 0.617188 0 0.5 -0.03125 0.375 -0.0742188 L 0.375 -0.40625 C 0.496094 -0.34375 0.613281 -0.296875 0.722656 -0.265625 C 0.832031 -0.234375 0.9375 -0.21875 1.035156 -0.21875 C 1.179688 -0.21875 1.289062 -0.25 1.371094 -0.308594 C 1.449219 -0.367188 1.488281 -0.445312 1.488281 -0.550781 C 1.488281 -0.703125 1.34375 -0.804688 1.054688 -0.863281 L 1.042969 -0.867188 L 0.921875 -0.890625 C 0.734375 -0.929688 0.597656 -0.988281 0.511719 -1.078125 C 0.425781 -1.164062 0.382812 -1.28125 0.382812 -1.429688 C 0.382812 -1.617188 0.445312 -1.765625 0.574219 -1.867188 C 0.703125 -1.96875 0.886719 -2.023438 1.121094 -2.023438 C 1.226562 -2.023438 1.332031 -2.011719 1.429688 -1.992188 C 1.527344 -1.972656 1.621094 -1.945312 1.714844 -1.90625 Z "/>
</g>
</g>
<image id="source-11" x="0" y="0" width="0" height="0"/>
<mask id="mask-0">
<use xlink:href="#source-11"/>
</mask>
</defs>
<g fill="rgb(86.666667%, 86.666667%, 86.666667%)" fill-opacity="1">
<use xlink:href="#glyph-0-0" x="30" y="23.351562"/>
<use xlink:href="#glyph-0-1" x="32" y="23.351562"/>
<use xlink:href="#glyph-0-2" x="34" y="23.351562"/>
<use xlink:href="#glyph-0-1" x="36" y="23.351562"/>
<use xlink:href="#glyph-0-3" x="38" y="23.351562"/>
<use xlink:href="#glyph-0-4" x="40" y="23.351562"/>
<use xlink:href="#glyph-0-5" x="42" y="23.351562"/>
<use xlink:href="#glyph-0-6" x="44" y="23.351562"/>
<use xlink:href="#glyph-0-7" x="46" y="23.351562"/>
<use xlink:href="#glyph-0-8" x="48" y="23.351562"/>
</g>
</svg>
